<svg width="80" height="80" viewBox="0 0 80 80" fill="none" xmlns="http://www.w3.org/2000/svg">
<path d="M46.125 42C44.125 41.375 42.875 41.125 42.875 40C42.875 39 44.125 38.75 46.125 38C57 35 60.125 27.125 60.125 13.75H19.875C19.875 27.125 23 35 33.875 38C35.875 38.625 37.125 38.875 37.125 40C37.125 41.125 35.875 41.25 33.875 42C23 45 19.875 52.875 19.875 66.25H60.125C60.125 52.875 57 45 46.125 42Z" fill="#E5E5E5"/>
<path d="M44.375 42C42.875 41.375 42 41.125 42 40C42 39 42.875 38.75 44.375 38C52.25 34.875 53 27 53 13.75H27C27 27.125 27.75 35 35.625 38C37.125 38.625 38 38.875 38 40C38 41.125 37.125 41.25 35.625 42C27.75 45.125 27 53 27 66.25H53.125C53 52.875 52.25 45 44.375 42Z" fill="#F5F5F5"/>
<path d="M41.125 66.25C41.125 66.25 40.375 43.875 40.375 40C40.375 39 42.375 37.5 43.25 37C47.125 34.75 52 30.375 52 25.875H27.875C27.875 30.5 32.875 34.875 36.625 37C37.5 37.5 39.5 39 39.5 40C39.5 44 38.75 66.25 38.75 66.25H41.125Z" fill="#428BC1"/>
<path d="M70 77.5C70 78.875 69 80 67.625 80H12.375C11.125 80 10 78.875 10 77.5V73.75C10 72.375 11 71.25 12.375 71.25H67.75C69 71.25 70.125 72.375 70.125 73.75L70 77.5ZM62.5 12.75C62.5 13.25 62 13.75 61.375 13.75H18.625C18 13.75 17.5 13.25 17.5 12.75V9.75C17.5 9.25 18 8.75 18.625 8.75H61.375C62 8.75 62.5 9.25 62.5 9.75V12.75Z" fill="#212528"/>
<path d="M56.25 12.75C56.25 13.25 55.875 13.75 55.375 13.75H24.625C24.125 13.75 23.75 13.25 23.75 12.75V9.75C23.75 9.25 24.125 8.75 24.625 8.75H55.375C55.875 8.75 56.25 9.25 56.25 9.75V12.75Z" fill="#51575B"/>
<path d="M62.5 70.25C62.5 70.75 62 71.25 61.375 71.25H18.625C18 71.25 17.5 70.75 17.5 70.25V67.25C17.5 66.75 18 66.25 18.625 66.25H61.375C62 66.25 62.5 66.75 62.5 67.25V70.25ZM70 6.25C70 7.625 69 8.75 67.625 8.75H12.375C11 8.75 10 7.625 10 6.25V2.5C10 1.125 11 0 12.375 0H67.75C69 0 70.125 1.125 70.125 2.5L70 6.25Z" fill="#212528"/>
<path d="M62.5 6.25C62.5 7.625 61.625 8.75 60.625 8.75H19.375C18.375 8.75 17.5 7.625 17.5 6.25V2.5C17.5 1.125 18.375 0 19.375 0H60.75C61.625 0 62.5 1.125 62.5 2.5V6.25ZM62.5 77.5C62.5 78.875 61.625 80 60.625 80H19.375C18.375 80 17.5 78.875 17.5 77.5V73.75C17.5 72.375 18.375 71.25 19.375 71.25H60.75C61.75 71.25 62.625 72.375 62.625 73.75C62.5 73.75 62.5 77.5 62.5 77.5Z" fill="#51575B"/>
<path d="M15 8.75H16.25V71.25H15V8.75Z" fill="#919191"/>
<path d="M13.75 8.75H15V71.25H13.75V8.75Z" fill="#CECECE"/>
<path d="M65 8.75H66.25V71.25H65V8.75Z" fill="#919191"/>
<path d="M63.75 8.75H65V71.25H63.75V8.75Z" fill="#CECECE"/>
<path d="M56.25 70.25C56.25 70.75 55.875 71.25 55.375 71.25H24.625C24.125 71.25 23.75 70.75 23.75 70.25V67.25C23.75 66.75 24.125 66.25 24.625 66.25H55.375C55.875 66.25 56.25 66.75 56.25 67.25V70.25Z" fill="#51575B"/>
</svg>
