<svg xmlns="http://www.w3.org/2000/svg" width="32" height="33" viewBox="0 0 32 33" fill="none">
  <g clip-path="url(#clip0_4801_5667)">
    <path d="M32 16.25C32 7.41344 24.8366 0.25 16 0.25C7.16344 0.25 0 7.41344 0 16.25C0 25.0866 7.16344 32.25 16 32.25C24.8366 32.25 32 25.0866 32 16.25Z" fill="#0052FF"/>
    <path d="M16.0044 21.875C12.8966 21.875 10.3794 19.3578 10.3794 16.25C10.3794 13.1422 12.8966 10.625 16.0044 10.625C18.7888 10.625 21.0997 12.6547 21.5451 15.3125H27.2122C26.7341 9.5375 21.9013 5 16.0044 5C9.79346 5 4.75439 10.0391 4.75439 16.25C4.75439 22.4609 9.79346 27.5 16.0044 27.5C21.9013 27.5 26.7341 22.9625 27.2122 17.1875H21.5404C21.0951 19.8453 18.7888 21.875 16.0044 21.875Z" fill="white"/>
  </g>
  <defs>
    <clipPath id="clip0_4801_5667">
      <rect width="32" height="32" fill="white" transform="translate(0 0.25)"/>
    </clipPath>
  </defs>
</svg>