<?xml version="1.0" encoding="UTF-8"?>
<svg xmlns="http://www.w3.org/2000/svg" xmlns:xlink="http://www.w3.org/1999/xlink" width="37px" height="37px" viewBox="0 0 37 37" version="1.1">
<g id="surface1">
<path style=" stroke:none;fill-rule:nonzero;fill:rgb(67.058825%,62.352943%,94.901961%);fill-opacity:1;" d="M 7.941406 0 L 29.058594 0 C 33.445312 0 37 3.554688 37 7.941406 L 37 29.058594 C 37 33.445312 33.445312 37 29.058594 37 L 7.941406 37 C 3.554688 37 0 33.445312 0 29.058594 L 0 7.941406 C 0 3.554688 3.554688 0 7.941406 0 Z M 7.941406 0 "/>
<path style=" stroke:none;fill-rule:evenodd;fill:rgb(100%,99.215686%,97.254902%);fill-opacity:1;" d="M 15.949219 24.042969 C 14.496094 26.269531 12.058594 29.085938 8.820312 29.085938 C 7.289062 29.085938 5.816406 28.457031 5.816406 25.71875 C 5.816406 18.746094 15.339844 7.949219 24.171875 7.949219 C 29.199219 7.949219 31.203125 11.4375 31.203125 15.394531 C 31.203125 20.476562 27.902344 26.289062 24.625 26.289062 C 23.585938 26.289062 23.074219 25.71875 23.074219 24.8125 C 23.074219 24.574219 23.113281 24.320312 23.191406 24.042969 C 22.074219 25.957031 19.914062 27.726562 17.890625 27.726562 C 16.417969 27.726562 15.671875 26.800781 15.671875 25.503906 C 15.671875 25.027344 15.769531 24.535156 15.949219 24.042969 Z M 27.882812 15.257812 C 27.882812 16.414062 27.203125 16.988281 26.441406 16.988281 C 25.667969 16.988281 25 16.414062 25 15.257812 C 25 14.105469 25.667969 13.527344 26.441406 13.527344 C 27.203125 13.527344 27.882812 14.105469 27.882812 15.257812 Z M 23.558594 15.257812 C 23.558594 16.414062 22.875 16.988281 22.117188 16.988281 C 21.34375 16.988281 20.671875 16.414062 20.671875 15.257812 C 20.671875 14.105469 21.34375 13.527344 22.117188 13.527344 C 22.875 13.527344 23.558594 14.105469 23.558594 15.257812 Z M 23.558594 15.257812 "/>
</g>
</svg>
