<svg width="26" height="24" viewBox="0 0 26 24" fill="none" xmlns="http://www.w3.org/2000/svg">
    <g clip-path="url(#clip0_514_10446)">
        <path fill-rule="evenodd" clip-rule="evenodd"
            d="M23.876 12C23.876 12.1989 23.7921 12.3897 23.6429 12.5303C23.4936 12.671 23.2912 12.75 23.0801 12.75L4.30853 12.75L9.31778 17.469C9.46723 17.6098 9.55118 17.8008 9.55118 18C9.55118 18.1992 9.46723 18.3902 9.31778 18.531C9.16834 18.6718 8.96565 18.7509 8.7543 18.7509C8.54295 18.7509 8.34026 18.6718 8.19082 18.531L1.8238 12.531C1.74968 12.4613 1.69088 12.3786 1.65075 12.2875C1.61063 12.1963 1.58998 12.0987 1.58998 12C1.58998 11.9014 1.61063 11.8037 1.65075 11.7126C1.69088 11.6214 1.74968 11.5387 1.8238 11.469L8.19082 5.469C8.34026 5.32817 8.54295 5.24905 8.7543 5.24905C8.96565 5.24905 9.16834 5.32817 9.31778 5.469C9.46723 5.60983 9.55118 5.80084 9.55118 6C9.55118 6.19916 9.46723 6.39017 9.31778 6.531L4.30853 11.25L23.0801 11.25C23.2912 11.25 23.4936 11.329 23.6429 11.4697C23.7921 11.6103 23.876 11.8011 23.876 12Z"
            fill="currentColor" />
    </g>
    <defs>
        <clipPath id="clip0_514_10446">
            <rect width="24" height="25.4681" fill="currentColor" transform="translate(25.4678) rotate(90)" />
        </clipPath>
    </defs>
</svg>