<svg width="12" height="14" viewBox="0 0 12 14" fill="none" xmlns="http://www.w3.org/2000/svg">
<path d="M0.75 1.75C0.75 1.28587 0.934374 0.840752 1.26256 0.512563C1.59075 0.184374 2.03587 0 2.5 0L9.5 0C9.96413 0 10.4092 0.184374 10.7374 0.512563C11.0656 0.840752 11.25 1.28587 11.25 1.75V13.5625C11.25 13.6416 11.2285 13.7193 11.1878 13.7872C11.1471 13.855 11.0888 13.9106 11.019 13.948C10.9492 13.9853 10.8706 14.0031 10.7916 13.9993C10.7125 13.9955 10.636 13.9703 10.5701 13.9265L6 11.4634L1.42987 13.9265C1.36399 13.9703 1.28745 13.9955 1.20841 13.9993C1.12936 14.0031 1.05077 13.9853 0.981 13.948C0.911233 13.9106 0.852904 13.855 0.812225 13.7872C0.771546 13.7193 0.750041 13.6416 0.75 13.5625V1.75ZM2.5 0.875C2.26794 0.875 2.04538 0.967187 1.88128 1.13128C1.71719 1.29538 1.625 1.51794 1.625 1.75V12.7452L5.75763 10.5735C5.82943 10.5257 5.91375 10.5002 6 10.5002C6.08625 10.5002 6.17057 10.5257 6.24238 10.5735L10.375 12.7452V1.75C10.375 1.51794 10.2828 1.29538 10.1187 1.13128C9.95462 0.967187 9.73206 0.875 9.5 0.875H2.5Z" fill="currentColor"/>
</svg>
