<svg width="22" height="24" viewBox="0 0 22 24" fill="none" xmlns="http://www.w3.org/2000/svg">
<path d="M19.1667 13.8504V9.66671C19.1667 5.91354 16.6175 2.75187 13.1642 1.80104C12.8223 0.940041 11.987 0.333374 11 0.333374C10.013 0.333374 9.17767 0.940041 8.83584 1.80104C5.3825 2.75304 2.83333 5.91354 2.83333 9.66671V13.8504L0.841835 15.8419C0.733285 15.95 0.647199 16.0786 0.588533 16.2201C0.529867 16.3617 0.499779 16.5135 0.500001 16.6667V19C0.500001 19.3095 0.622917 19.6062 0.84171 19.825C1.0605 20.0438 1.35725 20.1667 1.66667 20.1667H20.3333C20.6428 20.1667 20.9395 20.0438 21.1583 19.825C21.3771 19.6062 21.5 19.3095 21.5 19V16.6667C21.5002 16.5135 21.4701 16.3617 21.4115 16.2201C21.3528 16.0786 21.2667 15.95 21.1582 15.8419L19.1667 13.8504ZM19.1667 17.8334H2.83333V17.1497L4.82483 15.1582C4.93338 15.05 5.01947 14.9215 5.07814 14.7799C5.1368 14.6384 5.16689 14.4866 5.16667 14.3334V9.66671C5.16667 6.45021 7.7835 3.83337 11 3.83337C14.2165 3.83337 16.8333 6.45021 16.8333 9.66671V14.3334C16.8333 14.6437 16.9558 14.94 17.1752 15.1582L19.1667 17.1497V17.8334ZM11 23.6667C11.7225 23.6676 12.4274 23.4434 13.0166 23.0252C13.6058 22.6071 14.0501 22.0157 14.2877 21.3334H7.71234C7.94994 22.0157 8.39423 22.6071 8.98343 23.0252C9.57263 23.4434 10.2775 23.6676 11 23.6667Z" fill="#484848"/>
</svg>
