<svg width="30" height="26" viewBox="0 0 30 26" fill="none" xmlns="http://www.w3.org/2000/svg">
<path d="M25.6663 10.9999C25.3127 10.9999 24.9736 11.1404 24.7235 11.3904C24.4735 11.6405 24.333 11.9796 24.333 12.3333V21.6666C24.333 22.0202 24.1925 22.3593 23.9425 22.6094C23.6924 22.8594 23.3533 22.9999 22.9997 22.9999H4.33301C3.97939 22.9999 3.64025 22.8594 3.3902 22.6094C3.14015 22.3593 2.99967 22.0202 2.99967 21.6666V10.9999C2.99967 10.6463 3.14015 10.3072 3.3902 10.0571C3.64025 9.80706 3.97939 9.66659 4.33301 9.66659H6.99967C7.29043 9.68176 7.57816 9.60135 7.81892 9.43763C8.05968 9.27392 8.24024 9.03589 8.33301 8.75992L9.05301 6.57325C9.14246 6.30842 9.31287 6.07841 9.54017 5.91571C9.76747 5.75301 10.0401 5.66586 10.3197 5.66659H17.6663C18.02 5.66659 18.3591 5.52611 18.6091 5.27606C18.8592 5.02601 18.9997 4.68687 18.9997 4.33325C18.9997 3.97963 18.8592 3.64049 18.6091 3.39044C18.3591 3.14039 18.02 2.99992 17.6663 2.99992H10.253C9.41507 3.00149 8.59879 3.26616 7.91936 3.75659C7.23994 4.24702 6.73169 4.93844 6.46634 5.73325L6.03967 7.06659H4.33301C3.27214 7.06659 2.25473 7.48801 1.50458 8.23816C0.754435 8.9883 0.333008 10.0057 0.333008 11.0666V21.7333C0.333008 22.7941 0.754435 23.8115 1.50458 24.5617C2.25473 25.3118 3.27214 25.7333 4.33301 25.7333H22.9997C24.0605 25.7333 25.078 25.3118 25.8281 24.5617C26.5782 23.8115 26.9997 22.7941 26.9997 21.7333V12.3999C27.0087 12.2193 26.9809 12.0387 26.918 11.8692C26.855 11.6996 26.7583 11.5447 26.6335 11.4137C26.5088 11.2828 26.3587 11.1785 26.1925 11.1074C26.0262 11.0363 25.8472 10.9997 25.6663 10.9999ZM13.6663 9.66659C12.6115 9.66659 11.5804 9.97938 10.7033 10.5654C9.82624 11.1514 9.14265 11.9844 8.73898 12.9589C8.33532 13.9335 8.2297 15.0058 8.43549 16.0404C8.64127 17.075 9.14923 18.0253 9.89511 18.7712C10.641 19.517 11.5913 20.025 12.6259 20.2308C13.6604 20.4366 14.7328 20.3309 15.7073 19.9273C16.6819 19.5236 17.5148 18.84 18.1008 17.963C18.6869 17.0859 18.9997 16.0548 18.9997 14.9999C18.9997 13.5854 18.4378 12.2289 17.4376 11.2287C16.4374 10.2285 15.0808 9.66659 13.6663 9.66659ZM13.6663 17.6666C13.1389 17.6666 12.6234 17.5102 12.1848 17.2172C11.7463 16.9242 11.4045 16.5077 11.2027 16.0204C11.0008 15.5331 10.948 14.997 11.0509 14.4797C11.1538 13.9624 11.4078 13.4872 11.7807 13.1143C12.1537 12.7414 12.6288 12.4874 13.1461 12.3845C13.6634 12.2816 14.1996 12.3344 14.6868 12.5362C15.1741 12.7381 15.5906 13.0799 15.8836 13.5184C16.1766 13.9569 16.333 14.4725 16.333 14.9999C16.333 15.7072 16.0521 16.3854 15.552 16.8855C15.0519 17.3856 14.3736 17.6666 13.6663 17.6666ZM28.333 2.99992H26.9997V1.66659C26.9997 1.31296 26.8592 0.973825 26.6092 0.723776C26.3591 0.473728 26.02 0.333252 25.6663 0.333252C25.3127 0.333252 24.9736 0.473728 24.7235 0.723776C24.4735 0.973825 24.333 1.31296 24.333 1.66659V2.99992H22.9997C22.6461 2.99992 22.3069 3.14039 22.0569 3.39044C21.8068 3.64049 21.6663 3.97963 21.6663 4.33325C21.6663 4.68687 21.8068 5.02601 22.0569 5.27606C22.3069 5.52611 22.6461 5.66659 22.9997 5.66659H24.333V6.99992C24.333 7.35354 24.4735 7.69268 24.7235 7.94273C24.9736 8.19278 25.3127 8.33325 25.6663 8.33325C26.02 8.33325 26.3591 8.19278 26.6092 7.94273C26.8592 7.69268 26.9997 7.35354 26.9997 6.99992V5.66659H28.333C28.6866 5.66659 29.0258 5.52611 29.2758 5.27606C29.5259 5.02601 29.6663 4.68687 29.6663 4.33325C29.6663 3.97963 29.5259 3.64049 29.2758 3.39044C29.0258 3.14039 28.6866 2.99992 28.333 2.99992Z" fill="currentColor"/>
</svg>
