<svg viewBox="0 0 18 18" fill="none" xmlns="http://www.w3.org/2000/svg">
<path d="M10.125 14.625H14.625V15.75H10.125V14.625ZM10.125 12.375H16.875V13.5H10.125V12.375ZM10.125 10.125H16.875V11.25H10.125V10.125Z" fill="currentColor"/>
<path d="M11.559 6.30956L9.00021 1.125L6.4414 6.30956L0.720215 7.14094L4.86022 11.1769L3.88259 16.875L7.87522 14.7763V13.5051L5.37715 14.8185L5.9689 11.367L6.06903 10.7837L5.64546 10.3714L3.13784 7.92619L6.6034 7.42275L7.1884 7.33781L7.45053 6.80737L9.00021 3.66694L10.5499 6.80737L10.812 7.33781L11.397 7.42275L15.5899 8.03306L15.7502 6.91875L11.559 6.30956Z" fill="currentColor"/>
</svg>
