<svg width="24" height="24" viewBox="0 0 24 24" fill="none" xmlns="http://www.w3.org/2000/svg">
<path opacity="0.7" d="M23.6218 11.9968L23.6237 11.9949L20.4324 8.80358L20.1408 8.51412L19.9007 8.27576L14.7897 3.16479L11.0649 6.88962L16.1753 12L11.0649 17.1103L14.7897 20.8352L19.9001 15.7248L19.902 15.7267L19.9051 15.7236L23.0964 12.5322L23.6249 12L23.6218 11.9968ZM14.7897 18.714L13.1863 17.1105L18.2966 12L13.1863 6.88962L14.7897 5.28612L19.3697 9.86614L19.902 10.3946L21.5074 12L19.902 13.6054L19.9001 13.6035L19.8969 13.6066L14.7897 18.714Z" fill="#737373"/>
<path d="M13.2558 12L13.2527 11.9968L13.2546 11.9949L10.0633 8.80358L9.53432 8.27811L4.42063 3.16479L0.695801 6.88962L5.80616 12L0.695801 17.1103L4.42063 20.8352L9.53432 15.7219L9.53624 15.7238L12.7276 12.5324L13.2558 12ZM9.52963 13.6085L9.52771 13.6066L4.42063 18.7138L2.81713 17.1103L7.92749 12L2.81713 6.88962L4.42063 5.28612L9.00064 9.86614L9.52935 10.3911L11.1383 12L9.52963 13.6085Z" fill="#737373"/>
</svg>
