<svg width="16" height="16" viewBox="0 0 16 16" fill="none" xmlns="http://www.w3.org/2000/svg">
<path d="M8.00016 1.33331C4.32416 1.33331 1.3335 4.32398 1.3335 7.99998C1.3335 11.676 4.32416 14.6666 8.00016 14.6666C11.6762 14.6666 14.6668 11.676 14.6668 7.99998C14.6668 4.32398 11.6762 1.33331 8.00016 1.33331ZM8.00016 13.3333C5.0595 13.3333 2.66683 10.9406 2.66683 7.99998C2.66683 5.05931 5.0595 2.66665 8.00016 2.66665C10.9408 2.66665 13.3335 5.05931 13.3335 7.99998C13.3335 10.9406 10.9408 13.3333 8.00016 13.3333Z" fill="#1E1E20"/>
<path d="M8.66683 4.66669H7.3335V8.27602L9.52883 10.4714L10.4715 9.52869L8.66683 7.72402V4.66669Z" fill="#1E1E20"/>
</svg>
