<svg width="18" height="18" viewBox="0 0 18 18" fill="none" xmlns="http://www.w3.org/2000/svg">
<path d="M8.99199 0.666504C4.39199 0.666504 0.666992 4.39984 0.666992 8.99984C0.666992 13.5998 4.39199 17.3332 8.99199 17.3332C13.6003 17.3332 17.3337 13.5998 17.3337 8.99984C17.3337 4.39984 13.6003 0.666504 8.99199 0.666504ZM9.00033 15.6665C5.31699 15.6665 2.33366 12.6832 2.33366 8.99984C2.33366 5.3165 5.31699 2.33317 9.00033 2.33317C12.6837 2.33317 15.667 5.3165 15.667 8.99984C15.667 12.6832 12.6837 15.6665 9.00033 15.6665ZM8.81699 4.83317H8.76699C8.43366 4.83317 8.16699 5.09984 8.16699 5.43317V9.3665C8.16699 9.65817 8.31699 9.93317 8.57533 10.0832L12.0337 12.1582C12.317 12.3248 12.6837 12.2415 12.8503 11.9582C12.8922 11.8907 12.92 11.8155 12.9322 11.737C12.9443 11.6586 12.9406 11.5785 12.9212 11.5015C12.9017 11.4245 12.867 11.3522 12.819 11.2889C12.7711 11.2257 12.7109 11.1727 12.642 11.1332L9.41699 9.2165V5.43317C9.41699 5.09984 9.15032 4.83317 8.81699 4.83317Z" fill="#737373"/>
</svg>
