<svg viewBox="0 0 32 27" fill="none" xmlns="http://www.w3.org/2000/svg">
<path d="M10.7783 4.48712V17.9487C10.7783 18.5437 11.0491 19.1144 11.531 19.5351C12.0129 19.9559 12.6665 20.1922 13.348 20.1922H23.6268C24.3083 20.1922 24.9619 19.9559 25.4439 19.5351C25.9258 19.1144 26.1965 18.5437 26.1965 17.9487V8.12398C26.1965 7.82509 26.128 7.52922 25.9952 7.25374C25.8624 6.97826 25.6678 6.72874 25.423 6.51981L21.1638 2.88295C20.6837 2.47311 20.039 2.2436 19.3675 2.24353H13.348C12.6665 2.24353 12.0129 2.47991 11.531 2.90066C11.0491 3.32142 10.7783 3.89208 10.7783 4.48712V4.48712Z" stroke="currentColor" stroke-width="2" stroke-linecap="round" stroke-linejoin="round"/>
<path d="M21.0569 20.1923V22.4359C21.0569 23.0309 20.7861 23.6016 20.3042 24.0223C19.8223 24.4431 19.1687 24.6795 18.4872 24.6795H8.20837C7.52684 24.6795 6.87323 24.4431 6.39132 24.0223C5.90941 23.6016 5.63867 23.0309 5.63867 22.4359V10.0961C5.63867 9.50109 5.90941 8.93043 6.39132 8.50967C6.87323 8.08892 7.52684 7.85254 8.20837 7.85254H10.7781" stroke="currentColor" stroke-width="2" stroke-linecap="round" stroke-linejoin="round"/>
</svg>
