<svg viewBox="0 0 32 32" fill="none" xmlns="http://www.w3.org/2000/svg">
  <path
    d="M22.9788 5.47961C23.4461 5.01309 24.0453 4.76193 24.6584 4.73924L24.7486 4.73949C25.2442 4.74089 25.7282 4.88892 26.1398 5.16493C26.5514 5.44094 26.8721 5.83258 27.0615 6.29053C27.2509 6.74847 27.3005 7.25222 27.2042 7.73832C27.1078 8.2244 26.8697 8.67109 26.5199 9.02212C26.5199 9.02213 26.5199 9.02214 26.5199 9.02215L16.9206 18.6525L16.9202 18.6529L16.7882 18.785L16.597 18.8216L16.5951 18.822L13.1923 19.4928L13.1923 19.4928L13.1873 19.4938L12.3245 19.6762L12.5069 18.8124L12.5069 18.8124L12.5079 18.8074L13.1787 15.4047L13.1791 15.4027L13.2157 15.2115L13.3477 15.0795L13.3482 15.0791L22.9786 5.47981L22.9788 5.47961ZM25.6837 6.31697L25.6831 6.31637C25.5195 6.15349 25.3331 6.01813 25.1247 5.94155V5.87074H24.7497C24.3847 5.87074 24.0723 6.05833 23.8166 6.31405L14.3977 15.7329L14.3175 15.8131L14.2952 15.9244L13.9598 17.5966L13.8491 18.1484L14.401 18.038L16.0732 17.7036L16.1845 17.6813L16.2648 17.6011L25.6837 8.18413L25.684 8.18381C25.9467 7.9205 26.1188 7.60488 26.1188 7.25017C26.1188 6.89536 25.9467 6.57989 25.6837 6.31697ZM21.833 26.0973H22.208V25.7223V16.9448L23.4025 15.7504V27.2917H4.70801V8.59727H16.2493L15.0549 9.79171H6.27745H5.90245V10.1667V25.7223V26.0973H6.27745H21.833Z"
    fill="white" stroke="white" stroke-width="0.75" />
</svg>