<svg width="20" height="20" viewBox="0 0 20 20" fill="none" xmlns="http://www.w3.org/2000/svg">
<path d="M2.65862 1.00845C2.20301 0.552846 1.46431 0.552846 1.0087 1.00845C0.553089 1.46406 0.553089 2.20275 1.0087 2.65835L8.3505 10.0001L1.0087 17.3418C0.55309 17.7974 0.553089 18.5361 1.0087 18.9917C1.46431 19.4473 2.20301 19.4473 2.65862 18.9917L10.0004 11.65L17.342 18.9915C17.7976 19.4471 18.5363 19.4471 18.992 18.9915C19.4476 18.5359 19.4476 17.7972 18.992 17.3416L11.6503 10.0001L18.992 2.65853C19.4476 2.20292 19.4476 1.46424 18.992 1.00863C18.5363 0.553022 17.7976 0.553022 17.342 1.00863L10.0004 8.35018L2.65862 1.00845Z" fill="#4B4B4B"/>
</svg>
