<svg viewBox="0 0 32 32" fill="none" xmlns="http://www.w3.org/2000/svg">
<path d="M7.47201 22.3973V24.2079L8.75234 22.9276L9.41645 22.2635V22.9013L7.75575 24.5476L7.02756 24.2478V19.8889V19.1389H6.27756H3.67156L3.13867 18.606V3.6718L3.67155 3.13892H26.3836L26.9165 3.6718V11.3611H26.472V4.33336V3.58336H25.722H4.33312H3.58312V4.33336V17.9445V18.6945H4.33312H6.93912L7.47201 19.2274V22.3973ZM20.9815 25.1905L20.762 24.9723H20.4526H13.3938L12.8609 24.4394V15.3385L13.3938 14.8056H28.328L28.8609 15.3385V24.4394L28.328 24.9723H25.722H24.972V25.7223V28.1367L24.2447 28.4361L20.9815 25.1905ZM13.3053 23.7778V24.5278H14.0553H20.707L21.1148 24.7026L23.2496 26.8188L24.5276 28.0857V26.2861V25.0607L25.0604 24.5278H27.6665H28.4165V23.7778V16V15.25H27.6665H14.0553H13.3053V16V23.7778Z" fill="white" stroke="white" stroke-width="1.5"/>
</svg>
