<svg width="16" height="16" viewBox="0 0 16 16" fill="none" xmlns="http://www.w3.org/2000/svg">
<path d="M5.86333 11.3911C5.56112 11.832 5.2374 12.2577 4.89333 12.6667C2.43333 12.5967 1.5 11.0001 1.5 11.0001C1.53497 8.73778 2.08319 6.51295 3.10333 4.49341C4.00006 3.79189 5.09271 3.38652 6.23 3.33341L6.56333 4.10341C7.03942 4.03732 7.51936 4.0028 8 4.00008C8.48279 4.00167 8.96494 4.03507 9.44333 4.10008L9.77667 3.33008C10.9151 3.38606 12.0078 3.79497 12.9033 4.50008C13.9202 6.51815 14.4661 8.74056 14.5 11.0001C14.5 11.0001 13.5667 12.5967 11.1067 12.6667C10.7678 12.2597 10.4496 11.8358 10.1533 11.3967M12.3067 10.4301C11.0267 11.0784 9.788 11.7267 8 11.7267C6.212 11.7267 4.97333 11.0784 3.69333 10.4301" stroke="black" stroke-width="0.5" stroke-linecap="round" stroke-linejoin="round"/>
<path d="M5.94894 9.8598C6.56566 9.8598 7.06561 9.35985 7.06561 8.74313C7.06561 8.12641 6.56566 7.62646 5.94894 7.62646C5.33222 7.62646 4.83228 8.12641 4.83228 8.74313C4.83228 9.35985 5.33222 9.8598 5.94894 9.8598Z" stroke="black" stroke-width="0.5" stroke-linecap="round" stroke-linejoin="round"/>
<path d="M10.051 9.8598C10.6677 9.8598 11.1677 9.35985 11.1677 8.74313C11.1677 8.12641 10.6677 7.62646 10.051 7.62646C9.43428 7.62646 8.93433 8.12641 8.93433 8.74313C8.93433 9.35985 9.43428 9.8598 10.051 9.8598Z" stroke="black" stroke-width="0.5" stroke-linecap="round" stroke-linejoin="round"/>
</svg>
