<svg width="16" height="16" viewBox="0 0 16 16" fill="none" xmlns="http://www.w3.org/2000/svg">
<path d="M14.6663 1.33321C14.6663 1.33321 9.57301 1.08655 5.55967 6.58655C2.47967 10.8065 1.33301 14.6665 1.33301 14.6665L2.62634 13.9999C3.58634 12.3332 4.08634 11.6465 5.02634 10.6665C6.71301 11.1599 8.47301 11.0999 9.99967 9.33321C8.66634 8.95988 7.59967 9.04655 6.02634 9.20655C7.79301 7.99988 8.99967 7.73321 10.6663 7.99988L11.333 6.66655C10.133 6.43988 9.33301 6.41988 8.14634 6.69321C9.45967 5.76655 10.373 5.24655 11.9997 5.33321L12.8063 4.04655C11.7663 3.97321 11.1397 4.08655 9.94634 4.37988C11.0197 3.40655 11.9997 2.96655 13.4263 2.87988C13.4263 2.87988 14.1263 1.61988 14.6663 1.33321Z" fill="currentColor"/>
</svg>
