<svg viewBox="0 0 24 24" fill="none" xmlns="http://www.w3.org/2000/svg">
    <path d="M6.375 3V2.625H6H3H2.625V3V6V6.375H3H6H6.375V6V3ZM13.875 3V2.625H13.5H10.5H10.125V3V6V6.375H10.5H13.5H13.875V6V3ZM21.375 3V2.625H21H18H17.625V3V6V6.375H18H21H21.375V6V3ZM6.375 10.5V10.125H6H3H2.625V10.5V13.5V13.875H3H6H6.375V13.5V10.5ZM13.875 10.5V10.125H13.5H10.5H10.125V10.5V13.5V13.875H10.5H13.5H13.875V13.5V10.5ZM21.375 10.5V10.125H21H18H17.625V10.5V13.5V13.875H18H21H21.375V13.5V10.5ZM6.375 18V17.625H6H3H2.625V18V21V21.375H3H6H6.375V21V18ZM13.875 18V17.625H13.5H10.5H10.125V18V21V21.375H10.5H13.5H13.875V21V18ZM21.375 18V17.625H21H18H17.625V18V21V21.375H18H21H21.375V21V18ZM1.875 7.125V1.875H7.125V7.125H1.875ZM9.375 7.125V1.875H14.625V7.125H9.375ZM16.875 7.125V1.875H22.125V7.125H16.875ZM1.875 14.625V9.375H7.125V14.625H1.875ZM9.375 14.625V9.375H14.625V14.625H9.375ZM16.875 14.625V9.375H22.125V14.625H16.875ZM1.875 22.125V16.875H7.125V22.125H1.875ZM9.375 22.125V16.875H14.625V22.125H9.375ZM16.875 22.125V16.875H22.125V22.125H16.875Z" fill="black" stroke="currentColor" stroke-width="0.75"/>
    </svg>
    