<svg width="24" height="24" viewBox="0 0 24 24" fill="none" xmlns="http://www.w3.org/2000/svg">
<path d="M20.0933 1.99998C20.0933 1.82317 20.023 1.6536 19.898 1.52858C19.773 1.40355 19.6034 1.33331 19.4266 1.33331H4.75993C4.58312 1.33331 4.41355 1.40355 4.28852 1.52858C4.1635 1.6536 4.09326 1.82317 4.09326 1.99998V2.66665H20.0933V1.99998Z" fill="#1D1D1F"/>
<path d="M21.4132 4.66667C21.4132 4.48986 21.343 4.32029 21.218 4.19526C21.093 4.07024 20.9234 4 20.7466 4H3.41325C3.23644 4 3.06687 4.07024 2.94184 4.19526C2.81682 4.32029 2.74658 4.48986 2.74658 4.66667V5.33333H21.4132V4.66667Z" fill="#1D1D1F"/>
<path d="M21.4135 6.66669H2.58683C2.25442 6.66669 1.93563 6.79873 1.70059 7.03378C1.46554 7.26883 1.3335 7.58762 1.3335 7.92002V20.08C1.3335 20.4124 1.46554 20.7312 1.70059 20.9663C1.93563 21.2013 2.25442 21.3334 2.58683 21.3334H21.4135C21.7459 21.3334 22.0647 21.2013 22.2997 20.9663C22.5348 20.7312 22.6668 20.4124 22.6668 20.08V7.92002C22.6668 7.58762 22.5348 7.26883 22.2997 7.03378C22.0647 6.79873 21.7459 6.66669 21.4135 6.66669ZM5.70683 8.96669C6.10239 8.96669 6.48907 9.08399 6.81797 9.30375C7.14687 9.52351 7.40321 9.83587 7.55459 10.2013C7.70596 10.5668 7.74557 10.9689 7.6684 11.3569C7.59123 11.7448 7.40075 12.1012 7.12104 12.3809C6.84134 12.6606 6.48497 12.8511 6.09701 12.9283C5.70905 13.0054 5.30691 12.9658 4.94146 12.8144C4.57601 12.6631 4.26365 12.4067 4.04389 12.0778C3.82413 11.7489 3.70683 11.3623 3.70683 10.9667C3.70683 10.4363 3.91754 9.92755 4.29262 9.55247C4.66769 9.1774 5.1764 8.96669 5.70683 8.96669ZM20.0002 18.6667H4.00016L8.9735 13.6867C9.06215 13.5988 9.18196 13.5494 9.30683 13.5494C9.4317 13.5494 9.55151 13.5988 9.64016 13.6867L12.0935 16.14L15.4735 12.6667C15.5622 12.5788 15.682 12.5294 15.8068 12.5294C15.9317 12.5294 16.0515 12.5788 16.1402 12.6667L20.0002 16.5267V18.6667Z" fill="#1D1D1F"/>
</svg>
