<svg width="24" height="24" viewBox="0 0 24 24" fill="none" xmlns="http://www.w3.org/2000/svg">
    <g clip-path="url(#clip0_644_5082)">
    <path d="M21.4133 6.6665H2.58659C2.25418 6.6665 1.93539 6.79855 1.70034 7.0336C1.4653 7.26864 1.33325 7.58743 1.33325 7.91984V20.0798C1.33325 20.4122 1.4653 20.731 1.70034 20.9661C1.93539 21.2011 2.25418 21.3332 2.58659 21.3332H21.4133C21.7457 21.3332 22.0644 21.2011 22.2995 20.9661C22.5345 20.731 22.6666 20.4122 22.6666 20.0798V7.91984C22.6666 7.58743 22.5345 7.26864 22.2995 7.0336C22.0644 6.79855 21.7457 6.6665 21.4133 6.6665ZM21.3333 19.9998H2.66659V7.99984H21.3333V19.9998Z" fill="currentColor"/>
    <path d="M5.70679 12.9668C6.10235 12.9668 6.48903 12.8495 6.81793 12.6297C7.14683 12.41 7.40317 12.0976 7.55455 11.7322C7.70592 11.3667 7.74553 10.9646 7.66836 10.5766C7.59119 10.1887 7.40071 9.83229 7.121 9.55258C6.8413 9.27288 6.48493 9.0824 6.09697 9.00523C5.70901 8.92806 5.30687 8.96766 4.94142 9.11904C4.57597 9.27041 4.26361 9.52676 4.04385 9.85566C3.82409 10.1846 3.70679 10.5712 3.70679 10.9668C3.70679 11.4972 3.9175 12.0059 4.29257 12.381C4.66765 12.7561 5.17635 12.9668 5.70679 12.9668ZM5.70679 9.90013C5.91881 9.89483 6.1276 9.95285 6.30648 10.0668C6.48537 10.1807 6.62623 10.3454 6.71107 10.5398C6.7959 10.7342 6.82087 10.9494 6.78277 11.1581C6.74467 11.3667 6.64525 11.5592 6.49719 11.7111C6.34913 11.863 6.15916 11.9672 5.95155 12.0106C5.74395 12.054 5.52812 12.0345 5.33166 11.9546C5.13519 11.8747 4.967 11.738 4.84857 11.5621C4.73014 11.3861 4.66685 11.1789 4.66679 10.9668C4.6667 10.6885 4.77541 10.4211 4.96972 10.2218C5.16403 10.0225 5.42854 9.90709 5.70679 9.90013Z" fill="currentColor"/>
    <path d="M5.26678 18.6666L9.26678 14.6666L11.3868 16.7866L9.50678 18.6666H10.8401L15.8134 13.6932L20.0001 17.8466V16.5132L16.1334 12.6666C16.0448 12.5786 15.925 12.5293 15.8001 12.5293C15.6752 12.5293 15.5554 12.5786 15.4668 12.6666L12.0268 16.1066L9.58011 13.6666C9.49146 13.5786 9.37165 13.5293 9.24678 13.5293C9.12191 13.5293 9.0021 13.5786 8.91344 13.6666L3.94678 18.6666H5.26678Z" fill="currentColor"/>
    <path d="M20.0933 2.00016C20.0933 1.82335 20.023 1.65378 19.898 1.52876C19.773 1.40373 19.6034 1.3335 19.4266 1.3335H4.75993C4.58312 1.3335 4.41355 1.40373 4.28852 1.52876C4.1635 1.65378 4.09326 1.82335 4.09326 2.00016V2.66683H20.0933V2.00016Z" fill="currentColor"/>
    <path d="M21.4132 4.66667C21.4132 4.48986 21.343 4.32029 21.218 4.19526C21.093 4.07024 20.9234 4 20.7466 4H3.41325C3.23644 4 3.06687 4.07024 2.94184 4.19526C2.81682 4.32029 2.74658 4.48986 2.74658 4.66667V5.33333H21.4132V4.66667Z" fill="currentColor"/>
    </g>
    <defs>
    <clipPath id="clip0_644_5082">
    <rect width="24" height="24" fill="white"/>
    </clipPath>
    </defs>
    </svg>
    