<svg viewBox="0 0 16 16" fill="none" xmlns="http://www.w3.org/2000/svg">
<path d="M3.63632 4.12105C3.63632 3.85327 3.8534 3.6362 4.12117 3.6362H7.51511C7.78289 3.6362 7.99996 3.41913 7.99996 3.15135C7.99996 2.88358 7.78289 2.6665 7.51511 2.6665H4.12117C3.31785 2.6665 2.66663 3.31773 2.66663 4.12105V11.8786C2.66663 12.6819 3.31785 13.3332 4.12117 13.3332H11.8787C12.6821 13.3332 13.3333 12.6819 13.3333 11.8786V8.48469C13.3333 8.21691 13.1162 7.99984 12.8484 7.99984C12.5807 7.99984 12.3636 8.21691 12.3636 8.48469V11.8786C12.3636 12.1464 12.1465 12.3635 11.8787 12.3635H4.12117C3.8534 12.3635 3.63632 12.1464 3.63632 11.8786V4.12105Z" fill="currentColor"/>
<path d="M9.93935 2.6665C9.67158 2.6665 9.4545 2.88358 9.4545 3.15135C9.4545 3.41913 9.67158 3.6362 9.93935 3.6362H11.6779L6.20257 9.11154C6.01323 9.30089 6.01323 9.60788 6.20257 9.79722C6.39192 9.98657 6.69891 9.98657 6.88825 9.79722L12.3636 4.32188V6.06044C12.3636 6.32822 12.5807 6.54529 12.8484 6.54529C13.1162 6.54529 13.3333 6.32822 13.3333 6.06044V3.15135C13.3333 2.88358 13.1162 2.6665 12.8484 2.6665H9.93935Z" fill="currentColor"/>
</svg>
