<svg viewBox="0 0 39 38" fill="none" xmlns="http://www.w3.org/2000/svg">
<path d="M22.3494 16.5554C21.0525 15.259 19.2938 14.5308 17.4601 14.5308C15.6264 14.5308 13.8677 15.259 12.5708 16.5554L7.67985 21.4447C6.38291 22.7417 5.6543 24.5007 5.6543 26.3349C5.6543 28.169 6.38291 29.928 7.67985 31.225C8.97679 32.5219 10.7358 33.2505 12.57 33.2505C14.4041 33.2505 16.1632 32.5219 17.4601 31.225L19.9048 28.7803" stroke="white" stroke-width="3" stroke-linecap="round" stroke-linejoin="round"/>
<path d="M17.46 21.4447C18.7569 22.741 20.5156 23.4693 22.3493 23.4693C24.183 23.4693 25.9417 22.741 27.2386 21.4447L32.1295 16.5553C33.4265 15.2584 34.1551 13.4993 34.1551 11.6652C34.1551 9.83104 33.4265 8.07201 32.1295 6.77507C30.8326 5.47813 29.0736 4.74951 27.2394 4.74951C25.4053 4.74951 23.6462 5.47813 22.3493 6.77507L19.9046 9.21973" stroke="white" stroke-width="3" stroke-linecap="round" stroke-linejoin="round"/>
</svg>
