<svg xmlns="http://www.w3.org/2000/svg" width="24" height="24" viewBox="0 0 24 24" fill="none">
  <path d="M11 18H12L16 12H13V8H12L8 14H11V18ZM12 22C9.71667 22 7.81233 21.2167 6.287 19.65C4.76167 18.0833 3.99933 16.1333 4 13.8C4 12.1333 4.66267 10.3207 5.988 8.362C7.31333 6.40333 9.31733 4.28267 12 2C14.6833 4.28333 16.6877 6.40433 18.013 8.363C19.3383 10.3217 20.0007 12.134 20 13.8C20 16.1333 19.2373 18.0833 17.712 19.65C16.1867 21.2167 14.2827 22 12 22ZM12 20C13.7333 20 15.1667 19.4123 16.3 18.237C17.4333 17.0617 18 15.5827 18 13.8C18 12.5833 17.4957 11.2083 16.487 9.675C15.4783 8.14167 13.9827 6.46667 12 4.65C10.0167 6.46667 8.521 8.14167 7.513 9.675C6.505 11.2083 6.00067 12.5833 6 13.8C6 15.5833 6.56667 17.0627 7.7 18.238C8.83333 19.4133 10.2667 20.0007 12 20Z" fill="black"/>
</svg>