<svg width="25" height="24" viewBox="0 0 25 24" fill="none" xmlns="http://www.w3.org/2000/svg">
  <path
    d="M6.875 22.875H23.7493V1.125H1.25V22.875H6.875ZM19.625 2.625H22.2493V4.5H19.625V2.625ZM19.625 6H22.2493V7.875H19.625V6ZM19.625 9.375H22.2493V11.25H19.625V9.375ZM19.625 12.75H22.2493V14.625H19.625V12.75ZM19.625 16.125H22.2493V18H19.625V16.125ZM19.625 19.5H22.2493V21.375H19.625V19.5ZM6.875 9.375V2.625H18.1243V11.25H6.875V9.375ZM6.875 19.5V12.75H18.1243V21.375H6.875V19.5ZM2.75 2.625H5.375V4.5H2.75V2.625ZM2.75 6H5.375V7.875H2.75V6ZM2.75 9.375H5.375V11.25H2.75V9.375ZM2.75 12.75H5.375V14.625H2.75V12.75ZM2.75 16.125H5.375V18H2.75V16.125ZM2.75 19.5H5.375V21.375H2.75V19.5Z"
    fill="currentColor" />
</svg>