<svg width="48" height="47" viewBox="0 0 48 47" fill="none" xmlns="http://www.w3.org/2000/svg">
<path d="M24.0057 4.25293C13.3472 4.25293 4.67578 12.9243 4.67578 23.5828C4.67578 34.2413 13.3472 42.9127 24.0057 42.9127C34.6642 42.9127 43.3356 34.2413 43.3356 23.5828C43.3356 12.9243 34.6642 4.25293 24.0057 4.25293ZM24.0057 39.0467C15.4793 39.0467 8.54176 32.1092 8.54176 23.5828C8.54176 15.0564 15.4793 8.11891 24.0057 8.11891C32.5321 8.11891 39.4696 15.0564 39.4696 23.5828C39.4696 32.1092 32.5321 39.0467 24.0057 39.0467Z" fill="currentColor"/>
<path d="M18.7729 15.284L27.0713 23.5824L18.7729 31.8807L21.5062 34.6139L32.5378 23.5824L21.5062 12.5508L18.7729 15.284Z" fill="currentColor"/>
</svg>
