<svg viewBox="0 0 32 32" fill="none" xmlns="http://www.w3.org/2000/svg">
<path d="M16.0001 4.33337V27.6667C11.463 27.6667 8.09202 21.7297 8.09202 21.7297H4.33341C3.98961 21.7297 3.65989 21.5931 3.41679 21.35C3.17368 21.1069 3.03711 20.7772 3.03711 20.4334V11.4695C3.03711 11.1257 3.17368 10.796 3.41679 10.5529C3.65989 10.3098 3.98961 10.1732 4.33341 10.1732H8.09202C8.09202 10.1732 11.463 4.33337 16.0001 4.33337Z" fill="white" stroke="white" stroke-width="2" stroke-linejoin="round"/>
<path d="M21.1855 10.1667C21.5908 10.5288 21.9566 10.9327 22.277 11.3717C23.2567 12.7157 23.7825 14.3369 23.7781 16.0001C23.7781 17.7203 23.2298 19.3102 22.3017 20.5955C21.9753 21.0471 21.6011 21.4622 21.1855 21.8334" stroke="white" stroke-width="2" stroke-linecap="round" stroke-linejoin="round"/>
<path d="M22.6348 27.1391C26.4251 24.877 28.9633 20.7347 28.9633 16C28.9633 11.3385 26.5029 7.25258 22.8104 4.96851" stroke="white" stroke-width="2" stroke-linecap="round"/>
</svg>
