<svg width="48" height="47" viewBox="0 0 48 47" fill="none" xmlns="http://www.w3.org/2000/svg">
<path d="M23.8599 4.25293C13.2014 4.25293 4.53003 12.9243 4.53003 23.5828C4.53003 34.2413 13.2014 42.9127 23.8599 42.9127C34.5184 42.9127 43.1898 34.2413 43.1898 23.5828C43.1898 12.9243 34.5184 4.25293 23.8599 4.25293ZM23.8599 39.0467C15.3335 39.0467 8.39601 32.1092 8.39601 23.5828C8.39601 15.0564 15.3335 8.11891 23.8599 8.11891C32.3863 8.11891 39.3238 15.0564 39.3238 23.5828C39.3238 32.1092 32.3863 39.0467 23.8599 39.0467Z" fill="currentColor"/>
<path d="M26.3592 12.5508L15.3276 23.5824L26.3592 34.6139L29.0925 31.8807L20.7941 23.5824L29.0925 15.284L26.3592 12.5508Z" fill="currentColor"/>
</svg>
