<svg width="18" height="22" viewBox="0 0 18 22" fill="none" xmlns="http://www.w3.org/2000/svg">
<path d="M9 0L17.217 1.826C17.4391 1.87536 17.6377 1.99897 17.78 2.1764C17.9224 2.35384 18 2.57452 18 2.802V12.789C17.9999 13.7767 17.756 14.7492 17.2899 15.62C16.8238 16.4908 16.1499 17.2331 15.328 17.781L9 22L2.672 17.781C1.85015 17.2334 1.17624 16.4913 0.710112 15.6206C0.243984 14.7499 6.01569e-05 13.7776 0 12.79V2.802C3.90378e-05 2.57452 0.0776379 2.35384 0.21999 2.1764C0.362341 1.99897 0.560937 1.87536 0.783 1.826L9 0ZM13.452 7.222L8.502 12.171L5.674 9.343L4.26 10.757L8.503 15L14.867 8.636L13.452 7.222Z" fill="url(#paint0_linear_3866_6097)"/>
<defs>
<linearGradient id="paint0_linear_3866_6097" x1="18" y1="10.8533" x2="-1.07749e-06" y2="10.8533" gradientUnits="userSpaceOnUse">
<stop stop-color="#5EC4EE"/>
<stop offset="1" stop-color="#CB5EEE"/>
</linearGradient>
</defs>
</svg>
