<svg viewBox="0 0 32 32" fill="none" xmlns="http://www.w3.org/2000/svg">
<mask id="path-1-inside-1_96_768" fill="white">
<path fill-rule="evenodd" clip-rule="evenodd" d="M4 5C3.73478 5 3.48043 5.10536 3.29289 5.29289C3.10536 5.48043 3 5.73478 3 6V8C3 8.26522 3.10536 8.51957 3.29289 8.70711C3.48043 8.89464 3.73478 9 4 9H6C6.26522 9 6.51957 8.89464 6.70711 8.70711C6.89464 8.51957 7 8.26522 7 8V6C7 5.73478 6.89464 5.48043 6.70711 5.29289C6.51957 5.10536 6.26522 5 6 5H4ZM6 6H4V8H6V6Z"/>
</mask>
<path fill-rule="evenodd" clip-rule="evenodd" d="M4 5C3.73478 5 3.48043 5.10536 3.29289 5.29289C3.10536 5.48043 3 5.73478 3 6V8C3 8.26522 3.10536 8.51957 3.29289 8.70711C3.48043 8.89464 3.73478 9 4 9H6C6.26522 9 6.51957 8.89464 6.70711 8.70711C6.89464 8.51957 7 8.26522 7 8V6C7 5.73478 6.89464 5.48043 6.70711 5.29289C6.51957 5.10536 6.26522 5 6 5H4ZM6 6H4V8H6V6Z" fill="black"/>
<path d="M3 6H1.5H3ZM3 8H1.5H3ZM6 6H7.5V4.5H6V6ZM4 6V4.5H2.5V6H4ZM4 8H2.5V9.5H4V8ZM6 8V9.5H7.5V8H6ZM4 3.5C3.33696 3.5 2.70107 3.76339 2.23223 4.23223L4.35355 6.35355C4.25979 6.44732 4.13261 6.5 4 6.5V3.5ZM2.23223 4.23223C1.76339 4.70107 1.5 5.33696 1.5 6H4.5C4.5 6.13261 4.44732 6.25979 4.35355 6.35355L2.23223 4.23223ZM1.5 6V8H4.5V6H1.5ZM1.5 8C1.5 8.66304 1.76339 9.29893 2.23223 9.76777L4.35355 7.64645C4.44732 7.74021 4.5 7.86739 4.5 8H1.5ZM2.23223 9.76777C2.70107 10.2366 3.33696 10.5 4 10.5V7.5C4.13261 7.5 4.25979 7.55268 4.35355 7.64645L2.23223 9.76777ZM4 10.5H6V7.5H4V10.5ZM6 10.5C6.66304 10.5 7.29893 10.2366 7.76777 9.76777L5.64645 7.64645C5.74021 7.55268 5.86739 7.5 6 7.5V10.5ZM7.76777 9.76777C8.23661 9.29893 8.5 8.66304 8.5 8H5.5C5.5 7.86739 5.55268 7.74021 5.64645 7.64645L7.76777 9.76777ZM8.5 8V6H5.5V8H8.5ZM8.5 6C8.5 5.33696 8.23661 4.70107 7.76777 4.23223L5.64645 6.35355C5.55268 6.25979 5.5 6.13261 5.5 6H8.5ZM7.76777 4.23223C7.29893 3.76339 6.66304 3.5 6 3.5V6.5C5.86739 6.5 5.74021 6.44732 5.64645 6.35355L7.76777 4.23223ZM6 3.5H4V6.5H6V3.5ZM6 4.5H4V7.5H6V4.5ZM2.5 6V8H5.5V6H2.5ZM4 9.5H6V6.5H4V9.5ZM7.5 8V6H4.5V8H7.5Z" fill="white" mask="url(#path-1-inside-1_96_768)"/>
<path d="M10.75 7C10.75 6.9337 10.7763 6.87011 10.8232 6.82322C10.8701 6.77634 10.9337 6.75 11 6.75H29C29.0663 6.75 29.1299 6.77634 29.1768 6.82322C29.2237 6.87011 29.25 6.93369 29.25 7C29.25 7.06631 29.2237 7.12989 29.1768 7.17678C29.1299 7.22366 29.0663 7.25 29 7.25H11C10.9337 7.25 10.8701 7.22366 10.8232 7.17678C10.7763 7.12989 10.75 7.0663 10.75 7ZM10.8232 14.8232C10.8701 14.7763 10.9337 14.75 11 14.75H29C29.0663 14.75 29.1299 14.7763 29.1768 14.8232C29.2237 14.8701 29.25 14.9337 29.25 15C29.25 15.0663 29.2237 15.1299 29.1768 15.1768C29.1299 15.2237 29.0663 15.25 29 15.25H11C10.9337 15.25 10.8701 15.2237 10.8232 15.1768C10.7763 15.1299 10.75 15.0663 10.75 15C10.75 14.9337 10.7763 14.8701 10.8232 14.8232ZM10.8232 22.8232C10.8701 22.7763 10.9337 22.75 11 22.75H29C29.0663 22.75 29.1299 22.7763 29.1768 22.8232C29.2237 22.8701 29.25 22.9337 29.25 23C29.25 23.0663 29.2237 23.1299 29.1768 23.1768C29.1299 23.2237 29.0663 23.25 29 23.25H11C10.9337 23.25 10.8701 23.2237 10.8232 23.1768C10.7763 23.1299 10.75 23.0663 10.75 23C10.75 22.9337 10.7763 22.8701 10.8232 22.8232Z" fill="black" stroke="white" stroke-width="1.5"/>
<mask id="path-4-inside-2_96_768" fill="white">
<path fill-rule="evenodd" clip-rule="evenodd" d="M3 14C3 13.7348 3.10536 13.4804 3.29289 13.2929C3.48043 13.1054 3.73478 13 4 13H6C6.26522 13 6.51957 13.1054 6.70711 13.2929C6.89464 13.4804 7 13.7348 7 14V16C7 16.2652 6.89464 16.5196 6.70711 16.7071C6.51957 16.8946 6.26522 17 6 17H4C3.73478 17 3.48043 16.8946 3.29289 16.7071C3.10536 16.5196 3 16.2652 3 16V14ZM4 14H6V16H4V14ZM4 21C3.73478 21 3.48043 21.1054 3.29289 21.2929C3.10536 21.4804 3 21.7348 3 22V24C3 24.2652 3.10536 24.5196 3.29289 24.7071C3.48043 24.8946 3.73478 25 4 25H6C6.26522 25 6.51957 24.8946 6.70711 24.7071C6.89464 24.5196 7 24.2652 7 24V22C7 21.7348 6.89464 21.4804 6.70711 21.2929C6.51957 21.1054 6.26522 21 6 21H4ZM6 22H4V24H6V22Z"/>
</mask>
<path fill-rule="evenodd" clip-rule="evenodd" d="M3 14C3 13.7348 3.10536 13.4804 3.29289 13.2929C3.48043 13.1054 3.73478 13 4 13H6C6.26522 13 6.51957 13.1054 6.70711 13.2929C6.89464 13.4804 7 13.7348 7 14V16C7 16.2652 6.89464 16.5196 6.70711 16.7071C6.51957 16.8946 6.26522 17 6 17H4C3.73478 17 3.48043 16.8946 3.29289 16.7071C3.10536 16.5196 3 16.2652 3 16V14ZM4 14H6V16H4V14ZM4 21C3.73478 21 3.48043 21.1054 3.29289 21.2929C3.10536 21.4804 3 21.7348 3 22V24C3 24.2652 3.10536 24.5196 3.29289 24.7071C3.48043 24.8946 3.73478 25 4 25H6C6.26522 25 6.51957 24.8946 6.70711 24.7071C6.89464 24.5196 7 24.2652 7 24V22C7 21.7348 6.89464 21.4804 6.70711 21.2929C6.51957 21.1054 6.26522 21 6 21H4ZM6 22H4V24H6V22Z" fill="black"/>
<path d="M3 16H1.5H3ZM4 14V12.5H2.5V14H4ZM6 14H7.5V12.5H6V14ZM6 16V17.5H7.5V16H6ZM4 16H2.5V17.5H4V16ZM3 22H1.5H3ZM3 24H1.5H3ZM6 22H7.5V20.5H6V22ZM4 22V20.5H2.5V22H4ZM4 24H2.5V25.5H4V24ZM6 24V25.5H7.5V24H6ZM4.5 14C4.5 14.1326 4.44732 14.2598 4.35355 14.3536L2.23223 12.2322C1.76339 12.7011 1.5 13.337 1.5 14H4.5ZM4.35355 14.3536C4.25979 14.4473 4.13261 14.5 4 14.5V11.5C3.33696 11.5 2.70107 11.7634 2.23223 12.2322L4.35355 14.3536ZM4 14.5H6V11.5H4V14.5ZM6 14.5C5.86739 14.5 5.74021 14.4473 5.64645 14.3536L7.76777 12.2322C7.29893 11.7634 6.66304 11.5 6 11.5V14.5ZM5.64645 14.3536C5.55268 14.2598 5.5 14.1326 5.5 14H8.5C8.5 13.337 8.23661 12.7011 7.76777 12.2322L5.64645 14.3536ZM5.5 14V16H8.5V14H5.5ZM5.5 16C5.5 15.8674 5.55268 15.7402 5.64645 15.6464L7.76777 17.7678C8.23661 17.2989 8.5 16.663 8.5 16H5.5ZM5.64645 15.6464C5.74022 15.5527 5.86739 15.5 6 15.5V18.5C6.66304 18.5 7.29892 18.2366 7.76777 17.7678L5.64645 15.6464ZM6 15.5H4V18.5H6V15.5ZM4 15.5C4.13261 15.5 4.25978 15.5527 4.35355 15.6464L2.23223 17.7678C2.70108 18.2366 3.33696 18.5 4 18.5V15.5ZM4.35355 15.6464C4.44732 15.7402 4.5 15.8674 4.5 16H1.5C1.5 16.663 1.76339 17.2989 2.23223 17.7678L4.35355 15.6464ZM4.5 16V14H1.5V16H4.5ZM4 15.5H6V12.5H4V15.5ZM4.5 14V16H7.5V14H4.5ZM6 14.5H4V17.5H6V14.5ZM5.5 16V14H2.5V16H5.5ZM4 19.5C3.33696 19.5 2.70108 19.7634 2.23223 20.2322L4.35355 22.3536C4.25978 22.4473 4.13261 22.5 4 22.5V19.5ZM2.23223 20.2322C1.76339 20.7011 1.5 21.337 1.5 22H4.5C4.5 22.1326 4.44732 22.2598 4.35355 22.3536L2.23223 20.2322ZM1.5 22V24H4.5V22H1.5ZM1.5 24C1.5 24.663 1.76339 25.2989 2.23223 25.7678L4.35355 23.6464C4.44732 23.7402 4.5 23.8674 4.5 24H1.5ZM2.23223 25.7678C2.70108 26.2366 3.33696 26.5 4 26.5V23.5C4.13261 23.5 4.25978 23.5527 4.35355 23.6464L2.23223 25.7678ZM4 26.5H6V23.5H4V26.5ZM6 26.5C6.66304 26.5 7.29892 26.2366 7.76777 25.7678L5.64645 23.6464C5.74022 23.5527 5.86739 23.5 6 23.5V26.5ZM7.76777 25.7678C8.23661 25.2989 8.5 24.663 8.5 24H5.5C5.5 23.8674 5.55268 23.7402 5.64645 23.6464L7.76777 25.7678ZM8.5 24V22H5.5V24H8.5ZM8.5 22C8.5 21.337 8.23661 20.7011 7.76777 20.2322L5.64645 22.3536C5.55268 22.2598 5.5 22.1326 5.5 22H8.5ZM7.76777 20.2322C7.29892 19.7634 6.66304 19.5 6 19.5V22.5C5.86739 22.5 5.74022 22.4473 5.64645 22.3536L7.76777 20.2322ZM6 19.5H4V22.5H6V19.5ZM6 20.5H4V23.5H6V20.5ZM2.5 22V24H5.5V22H2.5ZM4 25.5H6V22.5H4V25.5ZM7.5 24V22H4.5V24H7.5Z" fill="white" mask="url(#path-4-inside-2_96_768)"/>
</svg>
