<svg width="17" height="16" viewBox="0 0 17 16" fill="none" xmlns="http://www.w3.org/2000/svg">
<path fill-rule="evenodd" clip-rule="evenodd" d="M4.61328 11.29L5.61328 10.29V11.71L4.46328 12.85L3.61328 12.5V10H2.11328L1.61328 9.5V1.5L2.11328 1H14.1133L14.6133 1.5V6H13.6133V2H2.61328V9H4.11328L4.61328 9.5V11.29ZM10.9033 13L12.7633 14.85L13.6133 14.5V13H15.1133L15.6133 12.5V7.5L15.1133 7H7.11328L6.61328 7.5V12.5L7.11328 13H10.9033ZM11.1133 12H7.61328V8H14.6133V12H13.1133L12.6133 12.5V13.29L11.4633 12.15L11.1133 12Z" fill="currentColor"/>
</svg>
