<svg width="16" height="12" viewBox="0 0 16 12" fill="none" xmlns="http://www.w3.org/2000/svg">
<path d="M9.99935 0.666504C10.7066 0.666504 11.3849 0.947455 11.885 1.44755C12.3851 1.94765 12.666 2.62593 12.666 3.33317C12.666 4.04041 12.3851 4.71869 11.885 5.21879C11.3849 5.71889 10.7066 5.99984 9.99935 5.99984C9.29211 5.99984 8.61383 5.71889 8.11373 5.21879C7.61363 4.71869 7.33268 4.04041 7.33268 3.33317C7.33268 2.62593 7.61363 1.94765 8.11373 1.44755C8.61383 0.947455 9.29211 0.666504 9.99935 0.666504ZM9.99935 1.93317C9.62805 1.93317 9.27195 2.08067 9.0094 2.34322C8.74685 2.60577 8.59935 2.96187 8.59935 3.33317C8.59935 3.70447 8.74685 4.06057 9.0094 4.32312C9.27195 4.58567 9.62805 4.73317 9.99935 4.73317C10.3707 4.73317 10.7267 4.58567 10.9893 4.32312C11.2519 4.06057 11.3993 3.70447 11.3993 3.33317C11.3993 2.96187 11.2519 2.60577 10.9893 2.34322C10.7267 2.08067 10.3707 1.93317 9.99935 1.93317ZM9.99935 6.6665C11.7793 6.6665 15.3327 7.55317 15.3327 9.33317V11.3332H4.66602V9.33317C4.66602 7.55317 8.21935 6.6665 9.99935 6.6665ZM9.99935 7.93317C7.99935 7.93317 5.93268 8.9065 5.93268 9.33317V10.0665H14.066V9.33317C14.066 8.9065 11.9793 7.93317 9.99935 7.93317ZM3.33268 6.85317L1.66602 7.8465L2.11935 5.97317L0.666016 4.71984L2.57935 4.55317L3.33268 2.79317L4.07268 4.55317L5.99935 4.71984L4.53268 5.97317L4.96602 7.8465L3.33268 6.85317Z" fill="currentColor"/>
</svg>
