<svg width="16" height="16" viewBox="0 0 16 16" fill="none" xmlns="http://www.w3.org/2000/svg">
<path d="M11.3333 1.3335V2.66683H13.338C13.7033 2.66683 14 2.9635 14 3.32883V14.0048C13.9998 14.1803 13.93 14.3486 13.8059 14.4727C13.6818 14.5969 13.5135 14.6667 13.338 14.6668H2.662C2.48648 14.6667 2.3182 14.5969 2.19409 14.4727C2.06998 14.3486 2.00018 14.1803 2 14.0048V3.32883C2 2.9635 2.29667 2.66683 2.662 2.66683H4.66667V1.3335H11.3333ZM4.66667 4.00016H3.33333V13.3335H12.6667V4.00016H11.3333V5.3335H4.66667V4.00016ZM6 10.6668V12.0002H4.66667V10.6668H6ZM6 8.66683V10.0002H4.66667V8.66683H6ZM6 6.66683V8.00016H4.66667V6.66683H6ZM10 2.66683H6V4.00016H10V2.66683Z" fill="currentColor"/>
</svg>
