<svg width="14" height="14" viewBox="0 0 14 14" fill="none" xmlns="http://www.w3.org/2000/svg">
<path d="M12.157 1.84297C12.0622 1.74449 11.9422 1.67402 11.81 1.63929C11.6778 1.60456 11.5387 1.60691 11.4077 1.64609L1.21945 4.52266C1.06858 4.56378 0.934055 4.65044 0.83423 4.77082C0.734406 4.8912 0.674137 5.03943 0.661641 5.19531C0.649843 5.35057 0.685323 5.50576 0.763414 5.64047C0.841505 5.77518 0.958547 5.88309 1.09914 5.95L5.78039 8.16484C5.8037 8.17717 5.82276 8.19622 5.83508 8.21953L8.04992 12.9008C8.11074 13.0321 8.20803 13.1432 8.3302 13.2207C8.45238 13.2983 8.59427 13.3391 8.73899 13.3383H8.80461C8.96049 13.3258 9.10873 13.2655 9.2291 13.1657C9.34948 13.0659 9.43614 12.9313 9.47727 12.7805L12.3538 2.59219C12.393 2.46127 12.3954 2.32209 12.3606 2.18992C12.3259 2.05776 12.2554 1.93771 12.157 1.84297ZM11.7195 2.41172L8.84836 12.6C8.84445 12.6232 8.83237 12.6442 8.81432 12.6592C8.79626 12.6743 8.77342 12.6824 8.74992 12.682C8.72839 12.6849 8.70653 12.6805 8.68774 12.6696C8.66894 12.6587 8.65428 12.642 8.64602 12.6219L6.45852 8.00625L8.7718 5.69297C8.83344 5.63133 8.86807 5.54772 8.86807 5.46055C8.86807 5.37337 8.83344 5.28977 8.7718 5.22812C8.71016 5.16648 8.62655 5.13185 8.53938 5.13185C8.4522 5.13185 8.3686 5.16648 8.30695 5.22812L5.99367 7.54141L1.37805 5.35391C1.35796 5.34565 1.34117 5.33098 1.33029 5.31219C1.31941 5.29339 1.31505 5.27153 1.31789 5.25C1.31756 5.2265 1.32565 5.20366 1.3407 5.18561C1.35574 5.16755 1.37675 5.15548 1.39992 5.15156L11.5882 2.28047H11.621C11.6346 2.28004 11.6481 2.28278 11.6604 2.28848C11.6728 2.29417 11.6836 2.30267 11.6921 2.31328C11.7052 2.32562 11.7147 2.34132 11.7196 2.35867C11.7244 2.37603 11.7243 2.39438 11.7195 2.41172Z" fill="black"/>
</svg>
