<svg viewBox="0 0 10 10" fill="none" xmlns="http://www.w3.org/2000/svg">
<path d="M5.23557 3.16602H4.76584C4.72287 3.16602 4.68772 3.20117 4.68772 3.24414V5.93262C4.68772 5.95801 4.69944 5.98145 4.71994 5.9961L6.3342 7.17481C6.36936 7.2002 6.41819 7.19336 6.44358 7.1582L6.72287 6.77735C6.74924 6.74121 6.74143 6.69238 6.70627 6.66797L5.31369 5.66113V3.24414C5.31369 3.20117 5.27854 3.16602 5.23557 3.16602ZM7.38205 3.90039L8.9133 4.27442C8.96213 4.28613 9.00998 4.24902 9.00998 4.19922L9.01779 2.62207C9.01779 2.55664 8.9426 2.51953 8.89182 2.56055L7.35276 3.7627C7.34112 3.7717 7.33227 3.78379 7.32721 3.7976C7.32214 3.81141 7.32108 3.82636 7.32414 3.84075C7.3272 3.85513 7.33426 3.86836 7.34451 3.87891C7.35475 3.88946 7.36776 3.89691 7.38205 3.90039ZM9.01975 6.84082L8.46604 6.65039C8.44673 6.64377 8.4256 6.64497 8.40717 6.65373C8.38874 6.66249 8.37446 6.67812 8.3674 6.69727C8.34885 6.74707 8.32932 6.7959 8.30881 6.84473C8.13498 7.25586 7.88596 7.62598 7.5676 7.94336C7.25277 8.25916 6.87967 8.51088 6.46897 8.68457C6.0435 8.86445 5.58617 8.95679 5.12424 8.95606C4.65744 8.95606 4.20529 8.86524 3.77951 8.68457C3.36881 8.51088 2.99571 8.25916 2.68088 7.94336C2.3635 7.62598 2.11447 7.25586 1.93967 6.84473C1.76078 6.41903 1.66913 5.96176 1.67014 5.5C1.67014 5.0332 1.76096 4.58008 1.94162 4.1543C2.11545 3.74317 2.36447 3.37305 2.68283 3.05567C2.99766 2.73986 3.37076 2.48814 3.78147 2.31445C4.20529 2.13379 4.65842 2.04297 5.12522 2.04297C5.59201 2.04297 6.04416 2.13379 6.46994 2.31445C6.88065 2.48814 7.25375 2.73986 7.56858 3.05567C7.66819 3.15625 7.76193 3.26074 7.84787 3.3711L8.43186 2.91406C7.6633 1.93164 6.46701 1.29981 5.12326 1.30078C2.78342 1.30176 0.904514 3.20215 0.927951 5.54297C0.951389 7.84278 2.82151 9.69922 5.12522 9.69922C6.93674 9.69922 8.47971 8.55078 9.0676 6.94238C9.08225 6.90137 9.06076 6.85547 9.01975 6.84082Z" fill="currentColor"/>
</svg>
