<svg viewBox="0 0 16 16" fill="none" xmlns="http://www.w3.org/2000/svg">
<g clip-path="url(#clip0_1652_19097)">
<path d="M5.5 4.00005V6.00005H12.5C12.8978 6.00005 13.2794 6.15808 13.5607 6.43939C13.842 6.72069 14 7.10222 14 7.50005V13.5C14 13.8979 13.842 14.2794 13.5607 14.5607C13.2794 14.842 12.8978 15 12.5 15H3.5C3.10218 15 2.72064 14.842 2.43934 14.5607C2.15804 14.2794 2 13.8979 2 13.5V7.50005C2 7.1024 2.1579 6.72102 2.43899 6.43974C2.72007 6.15847 3.10135 6.00031 3.499 6.00005H4V4.00005C3.99983 3.13479 4.28024 2.2928 4.79915 1.60041C5.31806 0.908012 6.04749 0.402548 6.87802 0.159846C7.70855 -0.0828554 8.59538 -0.0497074 9.40547 0.254317C10.2156 0.558341 10.9052 1.11685 11.371 1.84605C11.4241 1.92904 11.4602 2.02168 11.4775 2.11866C11.4948 2.21564 11.4927 2.31507 11.4716 2.41127C11.4504 2.50747 11.4105 2.59856 11.3541 2.67934C11.2977 2.76011 11.226 2.82899 11.143 2.88205C11.06 2.9351 10.9674 2.97129 10.8704 2.98854C10.7734 3.0058 10.674 3.00378 10.5778 2.98261C10.3835 2.93985 10.2141 2.82166 10.107 2.65405C9.81593 2.19826 9.3849 1.84914 8.87859 1.65909C8.37229 1.46903 7.818 1.44827 7.2989 1.59994C6.7798 1.7516 6.32387 2.0675 5.99953 2.50025C5.67518 2.93299 5.49991 3.45924 5.5 4.00005ZM3.5 7.50005V13.5H12.5V7.50005H3.5Z" fill="#DE2B47"/>
</g>
<defs>
<clipPath id="clip0_1652_19097">
<rect width="16" height="16" fill="white"/>
</clipPath>
</defs>
</svg>
