<svg width="16" height="16" viewBox="0 0 16 16" fill="none" xmlns="http://www.w3.org/2000/svg">
<g clip-path="url(#clip0_642_6673)">
<path d="M11.9999 5.66667C11.9999 6.10869 11.8243 6.53262 11.5117 6.84518C11.1991 7.15774 10.7752 7.33333 10.3332 7.33333C9.89116 7.33333 9.46723 7.15774 9.15467 6.84518C8.84211 6.53262 8.66652 6.10869 8.66652 5.66667C8.66652 5.22464 8.84211 4.80072 9.15467 4.48815C9.46723 4.17559 9.89116 4 10.3332 4C10.7752 4 11.1991 4.17559 11.5117 4.48815C11.8243 4.80072 11.9999 5.22464 11.9999 5.66667ZM11.9958 10.244C11.9592 11.3032 11.6948 12.3422 11.2205 13.29C10.7835 14.1164 10.1274 14.8064 9.32407 15.2845C8.52074 15.7625 7.60127 16.0101 6.66652 16H5.99985V12.3333C5.99687 11.7154 5.75008 11.1236 5.31314 10.6867C4.8762 10.2498 4.28444 10.003 3.66652 10H-0.000151038V9.33333C-0.0102433 8.39858 0.237312 7.47911 0.715356 6.67578C1.1934 5.87246 1.88347 5.21631 2.70985 4.77933C3.65769 4.30507 4.69661 4.04062 5.75585 4.004C6.72708 2.74949 7.97436 1.73569 9.40085 1.04129C10.8273 0.346884 12.3947 -0.00943174 13.9812 -6.54778e-07C14.2452 -0.0016688 14.5069 0.0487879 14.7514 0.148477C14.9958 0.248165 15.2182 0.395125 15.4057 0.58093C15.5933 0.766735 15.7423 0.98773 15.8442 1.23124C15.9462 1.47476 15.9991 1.736 15.9999 2C16.0111 3.58948 15.6558 5.16015 14.9613 6.58995C14.2669 8.01975 13.2521 9.27016 11.9958 10.244ZM1.38918 8.66667H2.89718C3.39228 7.56399 3.97387 6.50223 4.63652 5.49133C4.17626 5.59841 3.73027 5.75953 3.30785 5.97133C2.79981 6.23961 2.36165 6.62313 2.02847 7.09118C1.69529 7.55923 1.47635 8.09879 1.38918 8.66667ZM10.5085 11.3633C9.49762 12.026 8.43586 12.6076 7.33318 13.1027V14.6107C7.90106 14.5235 8.44062 14.3046 8.90867 13.9714C9.37672 13.6382 9.76024 13.2 10.0285 12.692C10.2403 12.2696 10.4014 11.8236 10.5085 11.3633ZM14.6665 1.98133C14.6617 1.80778 14.5893 1.64296 14.4648 1.52195C14.3403 1.40093 14.1735 1.33326 13.9999 1.33333C10.5598 1.43133 8.23318 2.74933 5.98785 5.88133C5.36128 6.78347 4.8103 7.73582 4.34052 8.72867C5.06846 8.86424 5.7383 9.21704 6.26189 9.74062C6.78548 10.2642 7.13827 10.9341 7.27385 11.662C8.2667 11.1922 9.21905 10.6412 10.1212 10.0147C13.2505 7.76667 14.5685 5.44 14.6665 1.98133ZM4.08118 11.9193C4.45369 12.2957 4.66265 12.8038 4.66265 13.3333C4.66265 13.8629 4.45369 14.371 4.08118 14.7473C3.47652 15.3513 1.66652 15.724 0.915849 15.8567L-0.0214844 16.0213L0.143182 15.084C0.276516 14.3333 0.648516 12.5233 1.25252 11.9187C1.63368 11.5551 2.14024 11.3523 2.66698 11.3525C3.19373 11.3526 3.70019 11.5556 4.08118 11.9193ZM3.33318 13.3333C3.33342 13.2458 3.31628 13.159 3.28275 13.0781C3.24922 12.9972 3.19997 12.9237 3.13785 12.862C3.01283 12.737 2.84329 12.6668 2.66652 12.6668C2.48974 12.6668 2.3202 12.737 2.19518 12.862C1.94101 13.3208 1.7625 13.8177 1.66652 14.3333C2.18239 14.2369 2.6794 14.0582 3.13852 13.804C3.20043 13.7423 3.24951 13.6689 3.28293 13.5881C3.31634 13.5074 3.33342 13.4208 3.33318 13.3333Z" fill="currentColor"/>
</g>
<defs>
<clipPath id="clip0_642_6673">
<rect width="16" height="16" fill="white"/>
</clipPath>
</defs>
</svg>
