<svg viewBox="0 0 32 32" fill="none" xmlns="http://www.w3.org/2000/svg">
<path d="M12.0003 17.3333C14.9458 17.3333 17.3337 14.9455 17.3337 12C17.3337 9.05444 14.9458 6.66663 12.0003 6.66663C9.05481 6.66663 6.66699 9.05444 6.66699 12C6.66699 14.9455 9.05481 17.3333 12.0003 17.3333Z" stroke="currentColor" stroke-width="2" stroke-linecap="round" stroke-linejoin="round"/>
<path d="M21.3337 25.3333C21.3337 20.9146 17.155 17.3333 12.0003 17.3333C6.84566 17.3333 2.66699 20.9146 2.66699 25.3333M20.0003 17.3333C20.8915 17.3332 21.7685 17.1099 22.5511 16.6836C23.3337 16.2573 23.997 15.6417 24.4805 14.8931C24.9639 14.1444 25.252 13.2865 25.3185 12.3978C25.385 11.5091 25.2277 10.618 24.8611 9.80569C24.4944 8.99343 23.9301 8.286 23.2196 7.74802C22.5091 7.21005 21.6751 6.85869 20.7939 6.72604C19.9126 6.59339 19.0122 6.68369 18.1748 6.98867C17.3374 7.29366 16.5898 7.80362 16.0003 8.47196" stroke="currentColor" stroke-width="2" stroke-linecap="round" stroke-linejoin="round"/>
<path d="M29.3333 25.3333C29.3333 20.9146 25.1547 17.3333 20 17.3333C18.924 17.3333 17.196 16.9426 16 15.6866" stroke="currentColor" stroke-width="2" stroke-linecap="round" stroke-linejoin="round"/>
</svg>
