<svg viewBox="0 0 28 29" fill="none" xmlns="http://www.w3.org/2000/svg">
<path d="M9 5C8.01109 5 7.04439 5.29324 6.22215 5.84265C5.3999 6.39206 4.75904 7.17295 4.3806 8.08658C4.00216 9.00021 3.90315 10.0055 4.09607 10.9755C4.289 11.9454 4.7652 12.8363 5.46447 13.5355C6.16373 14.2348 7.05464 14.711 8.02455 14.9039C8.99445 15.0969 9.99979 14.9978 10.9134 14.6194C11.827 14.241 12.6079 13.6001 13.1573 12.7779C13.7068 11.9556 14 10.9889 14 10C14 8.67392 13.4732 7.40215 12.5355 6.46447C11.5979 5.52678 10.3261 5 9 5ZM9 13C8.40666 13 7.82664 12.8241 7.33329 12.4944C6.83994 12.1648 6.45542 11.6962 6.22836 11.1481C6.0013 10.5999 5.94189 9.99667 6.05764 9.41473C6.1734 8.83279 6.45912 8.29824 6.87868 7.87868C7.29824 7.45912 7.83279 7.1734 8.41473 7.05764C8.99667 6.94189 9.59987 7.0013 10.1481 7.22836C10.6962 7.45542 11.1648 7.83994 11.4944 8.33329C11.8241 8.82664 12 9.40666 12 10C12 10.7956 11.6839 11.5587 11.1213 12.1213C10.5587 12.6839 9.79565 13 9 13ZM18 24V23C18 21.1435 17.2625 19.363 15.9497 18.0503C14.637 16.7375 12.8565 16 11 16H7C5.14348 16 3.36301 16.7375 2.05025 18.0503C0.737498 19.363 0 21.1435 0 23V24H2V23C2 21.6739 2.52678 20.4021 3.46447 19.4645C4.40215 18.5268 5.67392 18 7 18H11C12.3261 18 13.5979 18.5268 14.5355 19.4645C15.4732 20.4021 16 21.6739 16 23V24H18Z" fill="currentColor"/>
<path d="M22 9.5H24V19.5H22V9.5Z" fill="currentColor"/>
<path d="M18 15.5V13.5H28V15.5H18Z" fill="currentColor"/>
</svg>
