<svg viewBox="0 0 20 20" fill="none" xmlns="http://www.w3.org/2000/svg">
<g clip-path="url(#clip0_2714_32250)">
<path d="M10 0.898438C9.85547 0.898438 9.71094 0.902344 9.56641 0.908984L9.59766 1.61133C9.73047 1.60508 9.86328 1.60156 10 1.60156C14.6406 1.60156 18.3984 5.35937 18.3984 10C18.3984 14.6406 14.6406 18.3984 10 18.3984C6.5 18.3984 3.50195 16.2617 2.24023 13.2187L3.31953 12.8945L1.42773 11.5547L0.683594 13.6836L1.56445 13.4219C2.91719 16.75 6.1875 19.1016 10 19.1016C15.0234 19.1016 19.1016 15.0234 19.1016 10C19.1016 4.97656 15.0234 0.898438 10 0.898438ZM8.79687 0.978125C8.27734 1.04648 7.77734 1.15781 7.28906 1.30938L7.50781 1.97695C7.95312 1.83867 8.41797 1.73672 8.89063 1.67422L8.79687 0.978125ZM6.57031 1.56875C6.08594 1.76602 5.625 2.00312 5.1875 2.27656L5.55859 2.8707C5.96094 2.61914 6.38672 2.40078 6.83203 2.21953L6.57031 1.56875ZM4.54688 2.71484C4.1368 3.02223 3.75329 3.36353 3.40039 3.73516L3.91016 4.21484C4.23437 3.87227 4.58984 3.5582 4.96484 3.275L4.77734 3.01836L4.54688 2.71484ZM7.26172 3.05L7.08984 3.73125L15.5664 5.89844L15.7383 5.21875L7.26172 3.05ZM2.89336 4.31641C2.57344 4.71484 2.28633 5.14453 2.03633 5.59375L2.64766 5.9375C2.87852 5.51953 3.14336 5.125 3.43906 4.75391L2.89336 4.31641ZM7.87891 4.66016C7.72656 5.67578 7.98828 6.81641 8.43359 7.75391C8.68359 8.27734 8.98828 8.73828 9.28906 9.07422C9.45313 9.25781 9.61719 9.39844 9.76562 9.5L9.55469 10.3281C9.375 10.3437 9.16406 10.3906 8.92969 10.4727C8.50391 10.6211 8.01562 10.8789 7.54687 11.2188C6.70312 11.8281 5.92969 12.6992 5.57813 13.6641L12.1211 15.3398C12.2734 14.3242 12.0117 13.1836 11.5664 12.2461C11.3164 11.7227 11.0117 11.2617 10.7109 10.9258C10.5469 10.7422 10.3828 10.6016 10.2344 10.5L10.4453 9.67188C10.6211 9.65234 10.8359 9.60937 11.0703 9.52734C11.4961 9.37891 11.9844 9.12109 12.4531 8.78125C13.2969 8.17188 14.0703 7.30078 14.4219 6.33594L7.87891 4.66016ZM1.68906 6.28516C1.48086 6.75391 1.31016 7.23828 1.18125 7.74219L1.86406 7.90625C1.98242 7.44531 2.13906 7 2.33086 6.57031L1.68906 6.28516ZM1.02344 8.49609C0.941797 8.98438 0.898438 9.48828 0.898438 10V10.0352L1.60156 10.0273V10C1.60156 9.52734 1.64141 9.0625 1.7168 8.60937L1.02344 8.49609ZM4.43359 14.1016L4.26172 14.7812L12.7383 16.9492L12.9102 16.2695L4.43359 14.1016Z" fill="currentColor"/>
</g>
<defs>
<clipPath id="clip0_2714_32250">
<rect width="20" height="20" fill="white"/>
</clipPath>
</defs>
</svg>
