<svg width="16" height="16" viewBox="0 0 16 16" fill="none" xmlns="http://www.w3.org/2000/svg">
<path d="M7.8665 0.666504C5.95694 0.666504 4.1256 1.42507 2.77534 2.77534C1.42507 4.1256 0.666504 5.95694 0.666504 7.8665C0.666504 9.77606 1.42507 11.6074 2.77534 12.9577C4.1256 14.3079 5.95694 15.0665 7.8665 15.0665C9.77606 15.0665 11.6074 14.3079 12.9577 12.9577C14.3079 11.6074 15.0665 9.77606 15.0665 7.8665C15.0665 5.95694 14.3079 4.1256 12.9577 2.77534C11.6074 1.42507 9.77606 0.666504 7.8665 0.666504V0.666504ZM1.5545 8.4105H3.5625C3.5945 9.1385 3.6961 9.8617 3.8665 10.5705H2.1385C1.81627 9.89121 1.61847 9.15963 1.5545 8.4105ZM8.4105 4.0905V1.6185C9.18145 1.91148 9.81495 2.4822 10.1865 3.2185C10.3505 3.4961 10.4953 3.7849 10.6185 4.0825L8.4105 4.0905ZM10.9865 5.1705C11.1721 5.8769 11.2825 6.6009 11.3145 7.3305H8.4105V5.1705H10.9865ZM7.3225 1.6185V4.0905H5.1145C5.23791 3.79266 5.38227 3.50394 5.5465 3.2265C5.91648 2.48719 6.55018 1.91343 7.3225 1.6185ZM7.3225 5.1705V7.3305H4.4265C4.4585 6.6009 4.5689 5.8769 4.7545 5.1705H7.3225ZM3.5625 7.3225H1.5545C1.61847 6.57338 1.81627 5.8418 2.1385 5.1625H3.8665C3.69578 5.87102 3.59397 6.59439 3.5625 7.3225ZM4.4265 8.4105H7.3225V10.5705H4.7545C4.56893 9.86416 4.45898 9.14009 4.4265 8.4105ZM7.3305 11.6105V14.0825C6.55956 13.7895 5.92606 13.2188 5.5545 12.4825C5.39028 12.2051 5.24591 11.9163 5.1225 11.6185L7.3305 11.6105ZM8.4105 14.0825V11.6505H10.6185C10.4951 11.9483 10.3507 12.2371 10.1865 12.5145C9.81495 13.2508 9.18145 13.8215 8.4105 14.1145V14.0825ZM8.4105 10.5305V8.3705H11.3065C11.274 9.10009 11.1641 9.82416 10.9785 10.5305H8.4105ZM12.1785 8.3705H14.1865C14.1225 9.11963 13.9247 9.85121 13.6025 10.5305H11.8665C12.0345 9.8345 12.1361 9.1249 12.1705 8.4105L12.1785 8.3705ZM12.1785 7.2905C12.1419 6.57555 12.0374 5.8657 11.8665 5.1705H13.5945C13.9169 5.8505 14.1145 6.5817 14.1785 7.3305L12.1785 7.2905ZM12.9785 4.0905H11.5465C11.2874 3.36274 10.9118 2.68188 10.4345 2.0745C11.43 2.52137 12.2947 3.21534 12.9465 4.0905H12.9785ZM5.2985 2.0745C4.82116 2.68188 4.44561 3.36274 4.1865 4.0905H2.7865C3.43828 3.21534 4.303 2.52137 5.2985 2.0745ZM2.7785 11.6745H4.1865C4.44561 12.4023 4.82116 13.0831 5.2985 13.6905C4.30024 13.2369 3.43526 12.5345 2.7865 11.6505L2.7785 11.6745ZM10.4265 13.6905C10.9038 13.0831 11.2794 12.4023 11.5385 11.6745H12.9465C12.2907 12.5379 11.4264 13.2206 10.4345 13.6585L10.4265 13.6905Z" fill="currentColor"/>
</svg>
