<svg width="14" height="14" viewBox="0 0 14 14" fill="none" xmlns="http://www.w3.org/2000/svg">
<path d="M1.75 2.625V11.3708" stroke="black" stroke-width="0.874563" stroke-linecap="round"/>
<path d="M12.25 5.25V11.375" stroke="black" stroke-width="0.874563" stroke-linecap="round" stroke-linejoin="round"/>
<path d="M3.5 0.875H7.875" stroke="black" stroke-width="0.874563" stroke-linecap="round" stroke-linejoin="round"/>
<path d="M3.5 13.125H10.5" stroke="black" stroke-width="0.874563" stroke-linecap="round"/>
<path d="M12.25 11.375C12.2548 12.249 11.375 13.125 10.5 13.125" stroke="black" stroke-width="0.874563" stroke-linecap="round" stroke-linejoin="round"/>
<path d="M1.75 11.375C1.75 12.25 2.625 13.125 3.5 13.125" stroke="black" stroke-width="0.874563" stroke-linecap="round" stroke-linejoin="round"/>
<path d="M1.75 2.62378C1.75 1.75005 2.625 0.894535 3.5 0.875049" stroke="black" stroke-width="0.874563" stroke-linecap="round" stroke-linejoin="round"/>
<path d="M12.2452 5.25393L7.875 0.875" stroke="black" stroke-width="0.874563" stroke-linecap="round" stroke-linejoin="round"/>
<path d="M7.875 3.5C7.87769 4.37024 8.75353 5.25 9.625 5.25" stroke="black" stroke-width="0.874563" stroke-linecap="round" stroke-linejoin="round"/>
<path d="M7.875 3.5V0.875" stroke="black" stroke-width="0.874563" stroke-linecap="round" stroke-linejoin="round"/>
<path d="M9.625 5.25H12.25" stroke="black" stroke-width="0.874563" stroke-linecap="round" stroke-linejoin="round"/>
<path d="M3.5 11.375H6.125" stroke="black" stroke-width="0.875" stroke-linecap="round" stroke-linejoin="round"/>
<path d="M3.5 9.625H7.875" stroke="black" stroke-width="0.875" stroke-linecap="round" stroke-linejoin="round"/>
<path d="M3.5 7.875H6.125" stroke="black" stroke-width="0.875" stroke-linecap="round" stroke-linejoin="round"/>
</svg>
