<svg xmlns="http://www.w3.org/2000/svg" width="32" height="32" viewBox="0 0 32 32" fill="none">
  <path d="M17.2723 1.05996C17.0023 1.29996 14.9023 5.46746 14.9023 5.46746L13.3398 11.77L19.4198 11.2125C19.4198 11.2125 24.4773 1.80746 24.5798 1.58996C24.7623 1.19496 24.8598 1.03246 24.1623 1.03246C23.4648 1.02996 17.5248 0.834956 17.2723 1.05996Z" fill="#176CC7"/>
  <path d="M20.4197 10.8225C20.1172 10.66 11.2072 10.52 10.9972 10.8225C10.8072 11.0975 10.9147 12.54 10.9872 12.7125C11.1172 13.0124 13.9947 14.32 13.9947 14.32L13.9397 14.915C13.9397 14.915 14.1747 14.975 15.8472 14.975C17.5197 14.975 17.8497 14.89 17.8497 14.89L17.8547 14.3525C17.8547 14.3525 20.4447 13.0924 20.5747 12.9174C20.6847 12.7724 20.7222 10.985 20.4197 10.8225ZM17.7672 13.1025C17.7672 13.1025 17.8497 12.735 17.6772 12.65C17.5047 12.5625 14.5447 12.6025 14.3097 12.615C14.0747 12.6275 14.0747 13.0475 14.0747 13.0475L12.2097 12.0875L12.1747 11.73L19.2497 11.78L19.2247 12.1175L17.7672 13.1025Z" fill="#F79429"/>
  <path d="M14.8153 12.9724C14.5803 12.9724 14.4453 13.2174 14.4453 13.6399C14.4453 14.0349 14.5803 14.3674 14.8778 14.3424C15.1228 14.3224 15.2078 13.9474 15.1853 13.6149C15.1628 13.2174 15.1128 12.9724 14.8153 12.9724Z" fill="#FDFFFF"/>
  <path d="M7.32715 23.0226C7.32715 29.0126 12.7546 31.5051 16.3571 31.3976C20.5546 31.2726 25.0696 28.0876 24.6971 22.3726C24.3471 17.0101 19.8321 14.5501 15.8871 14.5776C11.3021 14.6126 7.32715 17.7901 7.32715 23.0226Z" fill="#F79429"/>
  <path d="M16.1677 30.4925C16.1052 30.4925 16.0402 30.4925 15.9777 30.49C14.1027 30.4275 12.2503 29.6375 10.8953 28.325C9.44525 26.92 8.65025 25.02 8.66025 22.9775C8.68275 17.99 13.0427 15.6775 16.0002 15.6775H16.0252C20.0327 15.695 23.3228 18.81 23.4153 23.0325C23.4553 24.9125 22.8552 26.7825 21.3452 28.2675C19.9352 29.6475 17.8952 30.4925 16.1677 30.4925ZM15.9952 16.5075C13.3427 16.5075 9.42025 18.6775 9.41025 22.9775C9.40275 26.1925 11.8928 29.4975 16.0403 29.6375C17.6203 29.6875 19.4028 29.1025 20.7153 27.8125C22.0802 26.47 22.6928 24.72 22.6653 23.045C22.6053 19.4125 19.6353 16.5225 16.0303 16.5075C16.0227 16.5025 16.0027 16.5075 15.9952 16.5075Z" fill="#D25116"/>
  <path d="M14.5225 15.3676C14.35 15.1301 12.5825 15.1976 10.68 16.8351C8.78996 18.4626 8.50746 20.2626 8.84746 20.3576C9.23496 20.4651 9.70746 18.7251 11.34 17.2626C12.84 15.9251 14.865 15.8401 14.5225 15.3676ZM22.12 21.9101C21.5175 21.9951 22.1425 23.8001 20.745 25.8201C19.5325 27.5726 18.1575 28.2076 18.3175 28.5926C18.5325 29.1076 20.735 27.8251 21.755 25.7351C22.6775 23.8426 22.5675 21.8451 22.12 21.9101Z" fill="#FEFFFA"/>
  <path d="M6.37706 0.930104C6.21956 1.0751 12.2421 11.8001 12.2421 11.8001C12.2421 11.8001 13.2521 11.9301 15.5071 11.9501C17.7621 11.9701 18.8796 11.8201 18.8796 11.8201C18.8796 11.8201 14.1971 1.0376 13.9171 0.930104C13.7796 0.875104 11.9246 0.855104 10.1121 0.835104C8.29706 0.812604 6.52706 0.790104 6.37706 0.930104Z" fill="#2E9DF4"/>
  <path d="M18.7376 20.9276C18.4476 18.4151 15.5226 18.2051 14.3101 19.1701C13.1301 20.1101 13.2426 21.4201 14.0701 21.5726C14.7226 21.6926 14.8926 21.1751 15.0826 20.9376C15.5126 20.4051 16.1976 20.3551 16.6451 20.7826C17.1526 21.2701 16.8401 22.4351 16.0776 22.4826C15.5101 22.5176 15.2226 22.4876 15.1501 22.5851C15.0476 22.7226 15.0626 23.8051 15.1676 23.9251C15.2876 24.0626 15.7676 23.9776 16.1801 23.9926C16.7476 24.0151 17.3501 24.8551 16.9526 25.4851C16.5401 26.1376 15.4426 25.8451 15.0476 25.4501C14.5251 24.9276 14.0026 25.2276 13.8276 25.4326C13.5526 25.7576 13.2601 26.4976 14.2751 27.2176C15.2876 27.9376 18.3601 28.0751 18.9801 25.8451C19.5201 23.8976 18.2601 23.0976 18.2601 23.0976C18.2601 23.0976 18.9026 22.3601 18.7376 20.9276Z" fill="#D25116"/>
</svg>