<svg xmlns="http://www.w3.org/2000/svg" width="32" height="32" viewBox="0 0 32 32" fill="none">
  <path d="M17.2723 1.05996C17.0023 1.29996 14.9023 5.46746 14.9023 5.46746L13.3398 11.77L19.4198 11.2125C19.4198 11.2125 24.4773 1.80746 24.5798 1.58996C24.7623 1.19496 24.8598 1.03246 24.1623 1.03246C23.4648 1.02996 17.5248 0.834956 17.2723 1.05996Z" fill="#176CC7"/>
  <path d="M20.4195 10.8225C20.117 10.66 11.207 10.52 10.997 10.8225C10.807 11.0975 10.8345 12.355 10.927 12.5175C11.0195 12.68 14.0145 14.0725 14.0145 14.0725L14.012 14.58C14.012 14.58 14.177 14.9775 15.847 14.9775C17.517 14.9775 17.6895 14.64 17.6895 14.64L17.7045 14.1274C17.7045 14.1274 20.327 12.8175 20.4645 12.7025C20.6045 12.585 20.722 10.985 20.4195 10.8225ZM17.6745 12.905C17.6745 12.905 17.667 12.555 17.4945 12.4675C17.322 12.38 14.5445 12.395 14.3095 12.4075C14.0745 12.42 14.0745 12.84 14.0745 12.84L12.1745 11.915V11.73L19.2495 11.78L19.262 11.99L17.6745 12.905Z" fill="#FCC417"/>
  <path d="M14.8153 12.7925C14.5803 12.7925 14.4453 13.0375 14.4453 13.46C14.4453 13.855 14.5803 14.1875 14.8778 14.1625C15.1228 14.1425 15.2078 13.7675 15.1853 13.435C15.1628 13.04 15.1128 12.7925 14.8153 12.7925Z" fill="#FDFFFF"/>
  <path d="M7.24512 22.68C7.24512 28.67 12.6601 31.3375 16.2601 31.21C20.2301 31.0675 24.9851 27.9725 24.6976 22.2575C24.4251 16.8425 19.8701 14.275 15.9251 14.3025C11.3401 14.335 7.24512 17.4475 7.24512 22.68Z" fill="#FCC417"/>
  <path d="M16.1326 30.1675C16.0701 30.1675 16.0051 30.1675 15.9426 30.165C14.0676 30.1025 12.2151 29.3125 10.8601 28C9.41009 26.595 8.61509 24.695 8.62509 22.6525C8.64759 17.665 13.0076 15.3525 15.9651 15.3525H15.9901C19.9976 15.37 23.2876 18.485 23.3801 22.7075C23.4201 24.5875 22.6501 26.56 21.1401 28.045C19.7301 29.4275 17.8601 30.1675 16.1326 30.1675ZM15.9601 16.1825C13.3076 16.1825 9.38509 18.3525 9.37509 22.6525C9.36759 25.8675 11.8576 29.1725 16.0051 29.3125C17.5851 29.3625 19.2126 28.7575 20.5276 27.465C21.8926 26.1225 22.6601 24.3925 22.6326 22.7175C22.5726 19.085 19.6026 16.195 15.9976 16.18C15.9876 16.18 15.9676 16.1825 15.9601 16.1825Z" fill="#FA912C"/>
  <path d="M14.4547 15.1524C14.2822 14.9149 12.3272 14.9599 10.4797 16.7649C8.69719 18.5074 8.50469 20.1499 8.84719 20.2449C9.23469 20.3524 9.70719 18.6124 11.3397 17.1499C12.8397 15.8099 14.7997 15.6249 14.4547 15.1524ZM22.0172 21.6199C21.4147 21.7049 22.0397 23.5099 20.6422 25.5299C19.4297 27.2824 18.0547 27.9174 18.2147 28.3024C18.4297 28.8174 20.6322 27.5349 21.6522 25.4449C22.5772 23.5524 22.4672 21.5549 22.0172 21.6199Z" fill="#FEFFFA"/>
  <path d="M13.9625 19.2551C13.8325 19.4476 13.95 21.1351 14.0275 21.2101C14.1775 21.3601 15.3175 20.8226 15.3175 20.8226L15.275 25.3351C15.275 25.3351 14.4375 25.3251 14.35 25.3576C14.1775 25.4226 14.2 27.1626 14.3275 27.2476C14.455 27.3326 17.8725 27.3776 18.0025 27.2051C18.1325 27.0326 18.1 25.5101 18.04 25.4401C17.9325 25.3101 17.115 25.3626 17.115 25.3626C17.115 25.3626 17.185 18.7176 17.1625 18.5051C17.14 18.2926 16.905 18.1601 16.625 18.2251C16.345 18.2901 14.045 19.1301 13.9625 19.2551Z" fill="#FA912C"/>
  <path d="M6.37706 0.930104C6.21956 1.0751 12.2421 11.8001 12.2421 11.8001C12.2421 11.8001 13.2521 11.9301 15.5071 11.9501C17.7621 11.9701 18.8796 11.8201 18.8796 11.8201C18.8796 11.8201 14.1971 1.0376 13.9171 0.930104C13.7796 0.875104 11.9246 0.855104 10.1121 0.835104C8.29706 0.812604 6.52706 0.790104 6.37706 0.930104Z" fill="#2E9DF4"/>
</svg>