<svg width="52" height="52" viewBox="0 0 52 52" fill="none" xmlns="http://www.w3.org/2000/svg">
<path d="M25.9998 49.3334C38.8865 49.3334 49.3332 38.8867 49.3332 26C49.3332 13.1134 38.8865 2.66669 25.9998 2.66669C13.1132 2.66669 2.6665 13.1134 2.6665 26C2.6665 38.8867 13.1132 49.3334 25.9998 49.3334Z" stroke="#FF3722" stroke-width="4.66667" stroke-linecap="round"/>
<path d="M16.6665 19.1167V18.8834M35.3332 19.1167V18.8834" stroke="#FF3722" stroke-width="4.66667" stroke-linecap="round"/>
<path d="M25.9998 28.3334C28.4752 28.3334 30.8492 29.3167 32.5995 31.067C34.3498 32.8174 35.3332 35.1914 35.3332 37.6667H16.6665C16.6665 35.1914 17.6498 32.8174 19.4002 31.067C21.1505 29.3167 23.5245 28.3334 25.9998 28.3334Z" stroke="#FF3722" stroke-width="4.66667" stroke-linecap="round" stroke-linejoin="round"/>
</svg>
