<svg width="52" height="52" viewBox="0 0 52 52" fill="none" xmlns="http://www.w3.org/2000/svg">
<path d="M25.9998 49.3334C38.8865 49.3334 49.3332 38.8867 49.3332 26C49.3332 13.1134 38.8865 2.66669 25.9998 2.66669C13.1132 2.66669 2.6665 13.1134 2.6665 26C2.6665 38.8867 13.1132 49.3334 25.9998 49.3334Z" stroke="#009B68" stroke-width="4.66667" stroke-linecap="round"/>
<path d="M16.6665 19.1167V18.8834M35.3332 19.1167V18.8834" stroke="#009B68" stroke-width="4.66667" stroke-linecap="round"/>
<path d="M25.9998 40C28.4752 40 30.8492 39.0167 32.5995 37.2663C34.3498 35.516 35.3332 33.142 35.3332 30.6667H16.6665C16.6665 33.142 17.6498 35.516 19.4002 37.2663C21.1505 39.0167 23.5245 40 25.9998 40Z" stroke="#009B68" stroke-width="4.66667" stroke-linecap="round" stroke-linejoin="round"/>
</svg>
