<svg width="40" height="40" viewBox="0 0 40 40" fill="none" xmlns="http://www.w3.org/2000/svg">
    <rect width="40" height="40" rx="8" fill="url(#paint0_linear_852_2830)"/>
    <g clip-path="url(#clip0_852_2830)">
    <path d="M28.3171 12.492C26.7871 11.802 25.1471 11.292 23.4321 11.002C23.4168 10.999 23.401 11.0009 23.3868 11.0074C23.3727 11.0138 23.3609 11.0245 23.3531 11.038C23.1431 11.407 22.9091 11.888 22.7451 12.268C20.9262 11.9962 19.077 11.9962 17.2581 12.268C17.0754 11.8468 16.8694 11.4362 16.6411 11.038C16.6333 11.0244 16.6216 11.0134 16.6075 11.0066C16.5934 10.9998 16.5776 10.9975 16.5621 11C14.8481 11.29 13.2081 11.8 11.6771 12.491C11.6639 12.4965 11.6527 12.5059 11.6451 12.518C8.53308 17.093 7.68008 21.555 8.09908 25.961C8.10025 25.9718 8.1036 25.9822 8.10893 25.9917C8.11426 26.0011 8.12146 26.0094 8.13008 26.016C9.94648 27.3384 11.9724 28.3458 14.1231 28.996C14.1381 29.0006 14.1541 29.0006 14.1691 28.9959C14.1841 28.9913 14.1973 28.9823 14.2071 28.97C14.6699 28.351 15.08 27.6944 15.4331 27.007C15.438 26.9976 15.4408 26.9872 15.4414 26.9766C15.4419 26.9661 15.4402 26.9555 15.4363 26.9456C15.4324 26.9358 15.4265 26.9268 15.4188 26.9195C15.4112 26.9121 15.4021 26.9065 15.3921 26.903C14.7461 26.6597 14.1202 26.3661 13.5201 26.025C13.5093 26.0188 13.5002 26.0101 13.4936 25.9995C13.4871 25.989 13.4832 25.977 13.4824 25.9646C13.4816 25.9522 13.4839 25.9398 13.4891 25.9286C13.4943 25.9173 13.5022 25.9075 13.5121 25.9C13.6381 25.807 13.7641 25.71 13.8841 25.613C13.8949 25.6043 13.9079 25.5987 13.9217 25.5969C13.9354 25.5952 13.9494 25.5973 13.9621 25.603C17.8891 27.367 22.1421 27.367 26.0231 25.603C26.0358 25.5969 26.0499 25.5946 26.0639 25.5961C26.0778 25.5977 26.0911 25.6032 26.1021 25.612C26.2221 25.71 26.3471 25.807 26.4741 25.9C26.4841 25.9073 26.4921 25.917 26.4975 25.9282C26.5028 25.9394 26.5053 25.9517 26.5047 25.9641C26.5041 25.9765 26.5004 25.9885 26.4941 25.9991C26.4877 26.0098 26.4787 26.0186 26.4681 26.025C25.8701 26.369 25.2481 26.66 24.5951 26.902C24.5851 26.9056 24.5759 26.9114 24.5683 26.9188C24.5607 26.9263 24.5547 26.9353 24.5508 26.9452C24.5469 26.9551 24.5452 26.9658 24.5458 26.9764C24.5463 26.9871 24.5492 26.9975 24.5541 27.007C24.9141 27.694 25.3261 28.348 25.7791 28.969C25.7885 28.9817 25.8016 28.9912 25.8167 28.9963C25.8317 29.0013 25.8479 29.0015 25.8631 28.997C28.0174 28.3486 30.0467 27.3407 31.8651 26.016C31.874 26.0098 31.8814 26.0017 31.8869 25.9924C31.8924 25.9831 31.8959 25.9727 31.8971 25.962C32.3971 20.868 31.0591 16.442 28.3481 12.52C28.3414 12.5072 28.3304 12.4973 28.3171 12.492ZM16.0201 23.278C14.8381 23.278 13.8631 22.209 13.8631 20.898C13.8631 19.586 14.8191 18.518 16.0201 18.518C17.2301 18.518 18.1961 19.595 18.1771 20.898C18.1771 22.21 17.2211 23.278 16.0201 23.278ZM23.9951 23.278C22.8121 23.278 21.8381 22.209 21.8381 20.898C21.8381 19.586 22.7931 18.518 23.9951 18.518C25.2051 18.518 26.1711 19.595 26.1521 20.898C26.1521 22.21 25.2061 23.278 23.9951 23.278Z" fill="white"/>
    </g>
    <defs>
    <linearGradient id="paint0_linear_852_2830" x1="0" y1="20" x2="40" y2="20" gradientUnits="userSpaceOnUse">
    <stop stop-color="#4E57DC"/>
    <stop offset="1" stop-color="#4843BC"/>
    </linearGradient>
    <clipPath id="clip0_852_2830">
    <rect width="24" height="24" fill="white" transform="translate(8.00008 8)"/>
    </clipPath>
    </defs>
    </svg>
    