<svg width="40" height="40" viewBox="0 0 40 40" fill="none" xmlns="http://www.w3.org/2000/svg">
    <rect width="40" height="40" rx="8" fill="url(#paint0_linear_852_1531)"/>
    <g clip-path="url(#clip0_852_1531)">
    <path d="M31.6431 12.9371C30.8081 13.3071 29.9111 13.5571 28.9681 13.6701C29.9411 13.0879 30.669 12.1715 31.0161 11.0921C30.1019 11.6351 29.1014 12.0173 28.0581 12.2221C27.3565 11.4729 26.4271 10.9764 25.4144 10.8096C24.4017 10.6427 23.3622 10.8149 22.4573 11.2993C21.5525 11.7838 20.8328 12.5534 20.4102 13.4888C19.9876 14.4241 19.8856 15.4728 20.1201 16.4721C18.2678 16.3791 16.4557 15.8976 14.8015 15.059C13.1473 14.2203 11.6879 13.0432 10.5181 11.6041C10.1181 12.2941 9.88807 13.0941 9.88807 13.9461C9.88763 14.7131 10.0765 15.4683 10.438 16.1448C10.7994 16.8213 11.3222 17.3981 11.9601 17.8241C11.2203 17.8005 10.4969 17.6007 9.85007 17.2411V17.3011C9.85 18.3768 10.2221 19.4195 10.9033 20.2521C11.5844 21.0847 12.5326 21.656 13.5871 21.8691C12.9009 22.0548 12.1814 22.0821 11.4831 21.9491C11.7806 22.8747 12.3601 23.6841 13.1404 24.264C13.9208 24.8439 14.863 25.1653 15.8351 25.1831C14.1849 26.4785 12.147 27.1812 10.0491 27.1781C9.67745 27.1782 9.30615 27.1565 8.93707 27.1131C11.0665 28.4823 13.5454 29.2089 16.0771 29.2061C24.6471 29.2061 29.3321 22.1081 29.3321 15.9521C29.3321 15.7521 29.3271 15.5501 29.3181 15.3501C30.2294 14.6911 31.016 13.875 31.6411 12.9401L31.6431 12.9371Z" fill="white"/>
    </g>
    <defs>
    <linearGradient id="paint0_linear_852_1531" x1="0" y1="20" x2="40" y2="20" gradientUnits="userSpaceOnUse">
    <stop stop-color="#11B3F4"/>
    <stop offset="1" stop-color="#0491E3"/>
    </linearGradient>
    <clipPath id="clip0_852_1531">
    <rect width="24" height="24" fill="white" transform="translate(8.00008 8)"/>
    </clipPath>
    </defs>
    </svg>
    